<?xml version="1.0" encoding="utf-8"?>
<!-- Generator: Adobe Illustrator 23.0.4, SVG Export Plug-In . SVG Version: 6.00 Build 0)  -->
<svg version="1.1" id="Layer_1" xmlns="http://www.w3.org/2000/svg" xmlns:xlink="http://www.w3.org/1999/xlink" x="0px" y="0px"
	 viewBox="0 0 1201 424.1" style="enable-background:new 0 0 1201 424.1;" xml:space="preserve">
<style type="text/css">
	.st0{fill:#394A58;}
	.st1{opacity:0.2;}
	.st2{fill:#FFFFFF;}
</style>
<title>White Tree Ring Bar</title>
<rect class="st0" width="1201" height="424.1"/>
<g class="st1">
	<path class="st2" d="M1243,62h6.5c1,0.3,2,0.7,3,1c3.1,1,6,2.3,8.9,3.8c2.5,1.3,5,2.6,7.6,3.8c3.2,1.6,6.7,2.2,10.2,2
		c1.8-0.1,3.7-0.2,5.6-0.1c2.6-0.1,5,1.2,6.3,3.4c0.1,2-0.1,4-0.8,5.9c-0.4,1.4-0.8,2.8-1.2,4.2c-0.4,1.1-0.4,2.2,0,3.3
		c0.7-0.2,1.3-0.4,1.9-0.7c1.3-0.8,2.6-1.7,3.8-2.7c1.7-1.5,3.3-3,5-4.6c1.5-1.4,3.2-2.6,5.1-3.4c1.1-0.5,2.3-0.6,3.4-0.3
		c11.8,3.2,23.2,7.1,33.7,13.3c5,2.9,10.3,5.3,15.7,7.2c2.5,0.9,5.1,1.5,7.7,1.8c2.1,0.3,4.3,0,6.3-0.9c1.5-0.7,3.2-0.8,4.8-0.3
		c3.8,1,7.4,2.8,10.4,5.2c3,2.4,5.9,5.1,8.8,7.7c2.4,2.2,4.7,4.4,7.1,6.6c1,0.8,1.8,1.8,2.4,2.9c0.8,1.3,1.7,2.6,2.7,3.8
		c2,2.3,4,4.5,6,6.8c1.2,0.4,2.6,0.2,3.7-0.5c2-0.9,4.2-1,6.3-0.2c5.4,1.7,10,5.1,13.3,9.7c0.7,0.9,1.1,2.1,1,3.3
		c-0.1,1.9-0.2,3.7-0.3,5.6c-0.1,0.9-0.2,1.8-0.2,2.6c0,1.4,0.2,1.7,1.6,2.1c2.1,0.6,4.3,0.4,6.3-0.6c1.4-0.7,2.8-1.4,4.2-2.1
		c1.5-0.8,3.1-1.2,4.8-1.1c2.3,0,4.4,1.7,4.8,4c0.5,1.7,0.6,3.5,0.3,5.2c-0.6,3.3-1.2,6.5-1.8,9.8c-0.1,0.6-0.5,1.3,0.1,1.9
		c1.3-0.1,2.5-0.2,3.8-0.3c2.9-0.3,5.9-0.6,8.3-2.6c0.1-0.1,0.2-0.1,0.3-0.1c2.1-1.3,4.7-1.1,6.6,0.5c0.9,0.7,1.8,1.5,2.5,2.4
		c3.3,3.6,6.4,7.4,9.8,11c1.5,1.5,2.5,3.6,2.6,5.7c0,1.2,0.5,2.3,1.3,3.2c0.6,0.7,1,1.4,1.6,2.1c3.3,3.6,6.6,7.2,9.9,10.9
		c2.6,2.9,5.2,5.8,7.7,8.9c1.3,1.6,2.4,3.3,4.3,4.3c0.7,0.4,1.2,1,1.7,1.6c1.3,1.5,2.2,3.2,2.9,5.1c0.8,2.3,1.6,4.6,2.4,6.9
		c0.9,2.9,2.3,5.6,4.2,8c1.3,1.9,2.6,3.9,3.7,6c0.7,1.2,1.3,2.4,1.9,3.6c1.7,3.2,4,5.8,7.2,6.8l3.6,4.4c0.6,0.7,1.2,1.3,1.7,2
		c1.6,2.4,1.5,4.5-0.5,6.3c-1.8,1.7-3,3.9-3.6,6.3c-0.7,2.2-1.5,4.5-2.2,6.7c-0.1,0.4-0.6,0.8,0,1.3c1.6-0.5,3.3-1.1,5-1.7
		c2.2-0.7,4.6-1,6.9-0.9c1.4,0.1,2.7,0.6,3.8,1.5c0.8,0.6,1.3,1.5,1.4,2.5c0.5,2.9-0.7,5.8-3,7.5c-1,0.8-2,1.5-3,2.3
		c-1.2,0.9-2.1,2.1-2.7,3.4c-0.1,0.5-0.2,1-0.1,1.5c1.1,0.8,2.2,0.6,3.3,0.7c3.3,0.2,6.7,0.4,10,0.5c1.7-0.1,3.3,0.9,3.8,2.6
		c0.4,1,0.9,2,1.2,3c0.6,2.1,1.2,4.1,1.7,6.2c1,3.6,1.8,7.2,2.9,10.8c0.5,2.1,1.5,4.1,2.9,5.7c1,1.1,1.6,2.5,1.7,4
		c0.3,1.9,0.5,3.9,0.7,5.8c0.2,3.1,0.4,6.2,0.6,9.4c0.1,3.5,1.2,6.8,3.2,9.6c1.1,1.4,1.8,3.1,1.9,4.9c0.1,3,1.2,5.7,2.4,8.4
		c0.9,2.1,1.4,4.3,1.5,6.5c0.1,2.8,0.3,5.7,0.3,8.5c0.1,6.6,0.1,13.1,0.2,19.7c-0.1,1.3,0.1,2.6,0.5,3.7V450
		c-0.9,1.9-2.2,3.4-3.9,4.6c-1.7,1.1-3.7,1.8-5.7,2.2c0.2,0.4,0.4,0.8,0.6,1.2c2.8,3.6,5.9,7,9,10.2v7.6c-0.2,0.5-0.4,1.1-0.5,1.6
		c-0.3,1.7-0.6,3.5-1,5.2s-0.9,3.2-1.2,4.9c-0.4,1.7-0.7,3.4-0.8,5.2c0,6,0.2,5.2-2.4,11c-0.4,0.7-0.7,1.4-0.9,2.2
		c-0.4,1.5-0.7,3-0.8,4.6c-0.1,1.4,0.4,3,0.1,4.4s-1.4,2.8-2.1,4.2c-0.6,1.2-1.1,2.5-1.6,3.8c-1,3.5-2.2,6.9-2.9,10.5
		c-1.3,6.2-2.4,12.5-3.6,18.8c-0.8,4.7-2.2,9.3-4.4,13.6c-1.4,2.5-2.1,5.3-2,8.2c0.1,0.8-0.1,1.6-0.6,2.2c-2.2,2.9-4.1,6-5.4,9.4
		c-0.9,2.1-1.8,4.1-2.9,6.1c-2.4,4.6-5.8,8.1-11.3,9c-1.2,0.2-2.3,0.9-2.9,1.9c1.5,3.6,2.9,7.2,4.4,11.1c-0.6,1.4-1.5,2.6-2.7,3.5
		c-1.9,1.8-3.7,3.8-5.2,6c-1.6,2.5-4.4,4.1-7.4,4c-1.6,0.1-3.1,0.2-4.7,0.6c-1.3,0.1-2.4,0.7-3.2,1.8c0.3,1.7,1.1,3.2,2.3,4.5
		c0.9,1,1.7,2.2,2.4,3.3c1.2,2,0.8,4.6-1.1,6.1c-0.6,0.5-1.2,1-1.8,1.5c-1.8,1.5-3.6,3-5.4,4.5c-0.8,0.7-1.6,1.5-2.4,2.2
		c-2.8,2.8-7,3.6-10.6,1.8c-0.5-0.2-1.1-0.3-1.7-0.4c-0.3,1.9-0.3,3.9,0.2,5.7c0.6,2,1.1,4,1.5,6c1.1,4.9-0.5,8.9-4.4,11.9
		c-1.4,1.1-2.8,2.1-4.3,3.1c-2.4,1.5-4.4,3.6-5.8,6.1c-1.2,2.1-2.8,4-4.7,5.7c-3.2,2.8-6.2,5.7-9.5,8.3c-9.4,7.5-19,14.9-28.1,22.7
		c-2.8,2.6-6,4.8-9.3,6.6c-2.1,1.1-3.8,2.8-4.8,4.9c-0.8,1.5-1.7,2.9-2.7,4.2c-0.9,1.4-2.5,2.1-4.1,1.8c-1-0.2-1.9-0.3-2.9-0.4
		c-1.9-0.5-3.7-1.3-5.3-2.4c-0.8-0.7-1.7-1.1-2.8-1.2c-0.1,1-0.2,2-0.2,2.9c0,2.3,0.1,4.7,0,7.1c-0.1,1.2-0.2,2.3-0.5,3.5
		c-0.5,2.1-2,3.7-4,4.4c-1.1,0.4-2.2,0.7-3.4,0.9c-4.2,0.3-8.4,0.6-12.6,0.8c-3.2-4.1-4.6-5-7.7-4.9l0.6,4c-0.9,0.9-1.8,1.7-2.6,2.5
		c-1.1,1-2.2,2-3.3,2.9c-12.2,10-26.6,16.8-42,20c-4.7,1-9.4,2-13.7,4.2c-2.3,1.1-4.8,1.7-7.4,1.8c-2.8,0.2-5.6,1-8.1,2.4
		c-1.1,0.7-2.2,1.3-3.4,1.7c-3.3,1.1-6.5,1.1-9.3-1.4c-0.6-0.6-1.2-1.1-1.8-1.6c-1.5-1.2-3.7-1.1-5.1,0.4c-0.7,0.7-1.2,1.5-1.6,2.4
		c-0.5,1.1-0.8,2.2-1.1,3.3c-0.7,2.5-2.3,4.6-4.5,5.9c-1.9,1.2-4,2.1-6.2,2.6c-4,0.9-8.1,1.5-12.2,1.7c-3.8,0.3-7.6,0.8-11.3,1.5
		c-0.9,0.2-1.9,0.2-2.9-0.1c-3.8-1-7.7-1.5-11.6-1.5c-1,0-1.9,0.3-2.7,0.9c-0.4,0.3-0.8,0.6-1.1,1c-0.9,1.1-2.4,1.5-3.7,1
		c-0.5-0.1-1-0.2-1.4-0.3c-3-0.6-6-0.9-9-0.9c-4.2,0.1-7.6,1.5-9.7,5.4h-1.2c-0.9-0.3-1.9-0.5-2.8-0.6c-2.9-0.3-5.9-0.4-8.8-0.7
		c-6.6-0.7-13.2-1.4-19.8-2.2c-5.1-0.6-10.1-1.2-15.1-2c-6.8-1-13.5-2.3-20.2-3.4c-5.6-0.9-11-2.9-15.8-6c-2.1-1.5-4.5-2.5-7-2.9
		c-1.3-0.2-2.5-0.6-3.6-1.2c-3.6-1.6-7.3-2.8-11.1-3.6c-0.9-1.4-1.4-2.9-1.6-4.5c-0.3-1.3-0.5-2.7-0.9-4c-0.3-1.3-1.3-2.3-2.6-2.5
		c-4.2-1.2-8.6-0.9-12.6,0.9c-0.6,0.3-1.2,0.7-1.8,1c-2.2-1.1-4.7-1.5-7.1-1.4c-1.5,0-2.9-0.3-4.2-1c-1.2-4.4-0.3-9-0.8-13.5
		c-3.1,0.7-5.9,1.2-8.8,1.9c-1.6,0.4-3.4,0.8-4.6,1.7c-2.2,1.8-4.4,1.3-6.7,0.8c-0.9-0.2-1.7-0.5-2.5-0.8c-3.4-1.1-6.6-2.6-9.5-4.5
		c-2.1-1.5-4.5-2.4-7.1-2.7c-1.8-0.1-3.5-0.8-4.7-2c-1.7-1.5-3.8-2.5-6-2.8c-0.6-0.1-1.2-0.2-1.7-0.3c-2-0.4-3.9-1.4-5.2-3
		c-1.4-1.5-2.7-3.1-4-4.7c-1.9-2.4-3.8-4.8-6.5-6.2c-1.5-0.8-2.4-2.4-2.3-4.2c0-0.8,0.1-1.6,0.2-2.3c0.5-1.9,1.1-3.8,1.6-5.6
		c0.5-1.2,0.8-2.5,0.7-3.8c-0.5-0.1-1-0.1-1.4-0.1c-1.8,0.3-3.4,0.9-4.8,2c-1.3,0.9-2.6,1.8-3.9,2.7c-2.1,1.4-4.7,2-7.3,1.6
		c-2.1-0.3-2.5-0.6-2.8-2.7c-0.1-0.9-0.1-1.8-0.2-2.6c-0.2-2.5-0.3-5.1-0.5-7.6c-0.1-1.2-0.3-2.3-0.6-3.5c-0.5-2.8-2.8-4.9-5.6-5.3
		c-1.6-0.3-3.3-0.5-4.9-0.7s-3.3-0.4-4.9-0.7c-2.7-0.5-5.2-2.1-6.7-4.4c-1.3-2-2.5-4-3.8-6c-1.4-2.1-2.8-4.2-4.3-6.3
		c-1.8-2.3-3.7-4.6-5.5-6.9s-3.8-4.5-5.7-6.7c-2.9-3.4-6.4-6.1-10.4-8.1c-2.1-0.9-3.6-2.6-4.3-4.8c-1.2-3.1-2.2-6.1-1.7-9.4
		c0-0.2-0.1-0.3-0.2-0.6c-0.9-0.3-1.8-0.6-2.7-0.9c-2.3-0.9-4.3-2.4-5.8-4.4c-2.3-3-2.3-7.1-0.2-10.2c0.5-0.7,1-1.4,1.6-2.1
		c-1-1-2.2-1.7-3.6-2c-2-0.6-4-0.8-6.1-0.8c-0.7,0-1.3-0.1-2-0.4c-1.7-1.2-3.2-2.5-4.8-3.9c-1-0.8-1.6-2.1-1.3-3.4
		c0.1-1-0.2-2-0.8-2.7c-0.4-0.5-0.7-1-1.1-1.4c-2.2-2.5-4.1-5.3-5.4-8.3c-0.8-1.8-1.8-3.5-2.8-5.2c-1-1.9-2.6-3.5-4.6-4.5
		c-2.1-0.7-3.4-2.9-3.1-5.1c0-0.5,0-1-0.1-1.5c0-2.5-0.4-4.9-1.2-7.2c-1-2.8-0.3-4.4,2.2-6c0.8-0.5,1.5-0.8,2.4-1.1
		c1.6-0.6,3.2-1,4.7-1.6s3.3-1.1,5-1.8c1.4-0.4,2.5-1.4,3.2-2.7c-0.4-0.3-0.8-0.5-1.3-0.7c-2.1-0.6-4.2-0.8-6.4-0.5
		c-2.9,0.5-5.8,0.9-8.7,1.3c-3.1,0.5-6.3,0.1-9.2-1.1c-1.1-0.4-2-1.3-2.2-2.5c-0.6-1.9-1.4-3.8-2.2-5.7c-0.8-2-1.7-4-2.5-5.9
		c-1.7-3.8-2.3-8-1.8-12.1c0.1-0.8,0.1-1.6-0.2-2.3c-1.1-3.3-1.8-6.8-2-10.3c-0.4-5-1.6-9.9-3.7-14.5c-0.3-0.6-0.5-1.3-0.7-1.9
		c-1.8-4.4-2.6-9.1-2.3-13.8c0.1-1.9,0.3-3.7,0.5-5.6c0.2-3.5-0.2-7.1-1.2-10.5c-0.7-2.6-0.9-5.4-0.6-8.1c0.2-1.5,0.3-3.1,0.5-4.7
		c0.6-3.4-0.3-6.9-2.5-9.6c-0.7-0.9-1.4-1.9-1.9-2.9c-1.1-1.9-1.3-4.2-0.5-6.2c0.5-1.1,0.9-2.2,1.1-3.3c0.2-1.5,1.1-2.8,2.5-3.5
		c0.9-0.6,1.9-1,2.8-1.5c1.3-0.5,2.4-1.3,3.4-2.2c0.3-1.8-0.8-3.6-2.6-4.2c-0.9-0.3-1.9-0.6-2.8-0.8c-2.1-0.5-4.3-0.4-6.3-1.1v-5.3
		c1-0.3,1-1.3,1.3-2.1c1.6-4.3,4.3-7.3,9.2-7.9c0.2-0.1,0.4-0.1,0.6-0.3c-0.3-1.1-0.8-2.2-1.5-3.1c-2.1-3.1-5.1-5-8.1-6.7
		c-0.1-1.1-0.2-2-0.4-2.8c0-0.9-0.4-1.7-1-2.4v-4.1c0.7-0.9,1-1.9,1-3c0.5-4.4,1.3-8.7,2.6-12.9c1.8-6.6,3.9-13.1,4.8-20
		c0.1-0.5,0.3-0.9,0.5-1.3c1.3-1.9,1.9-4.1,1.7-6.4c0-1.6-0.1-3.1-0.1-4.7c0-1.4,0-2.8,0-4.1c0.1-2,0.8-3.9,2.2-5.3
		c0.3-0.4,0.6-0.8,0.7-0.9c0-2-0.1-3.6,0-5.3c0.1-2.6,1.7-5,4-6.1c1.6-0.8,3.2-1.4,5-1.7c0.7-0.1,1.4-0.3,2.1-0.6
		c0.4-1.8-0.1-3.7-1.2-5.1c-0.6-0.8-1.2-1.6-1.9-2.3c-1.1-1.1-1.6-2.7-1.5-4.3c0.3-5.2,0.9-10.3,1.9-15.5c2-10,5.3-19.4,11.4-27.8
		c1.7-2.3,3.1-4.7,4.6-7.1c2.2-3.6,3.7-7.6,4.4-11.8c0.2-1.2,0.5-2.5,0.7-3.8c0.5-3.6,2-7,4.4-9.8c1.4-1.6,2.7-3.3,4.2-5
		c1.9-2.2,3.9-4.4,5.9-6.6c5.4-5.8,10-12.3,13.6-19.4c1.4-2.8,3.1-5.4,4.8-8c1.4-2,3.1-3.8,5-5.4c0.9-0.9,2.2-1.3,3.5-1.2
		c2.9,0.2,4.8-1.2,6.2-3.6c0.5-0.9,0.9-1.8,1.2-2.7c0.6-1.4,1-2.8,1.6-4.1c0.4-1.1,1-2.1,1.6-3.1c1-1.7,2.8-2.6,4.7-2.4
		c1.5,0.2,2.9,0.4,4.3,0.8c1.8,0.4,3.6,1,5.4,1.4c1.6,0.4,3.2,0.3,4.7-0.5c0.6-1.8,0.8-3.8,0.3-5.8c-0.4-2.6-0.8-5.2-1.3-7.8
		c-0.4-1.8,0.2-3.6,1.6-4.8c1.5-1.3,3-2.5,4.7-3.6c2.7-1.8,5.3-3.7,6.6-6.7c2.4-0.7,3.5-0.6,5.5,0.5c0.9,0.5,1.8,1.2,2.8,1.7
		c2.5,1.5,5.7,0.8,7.3-1.7c0.2-0.3,0.4-0.7,0.5-1c0.4-0.9,0.7-1.8,0.8-2.8c0.3-1.1,0.4-2.3,0.7-3.5c0.3-1.5,0.8-3,1.3-4.5
		c0.6-1.5,2.1-2.4,3.7-2.4c1.6-0.1,3.1,0.3,4.5,1.1c1.3,0.9,2.5,1.8,3.8,2.7c1,0.7,1.9,1.4,2.9,2c0.8,0.6,1.9,0.8,2.9,0.5
		c0.1-0.5,0.2-1.1,0.2-1.6c0-1-0.1-2-0.3-2.9c-0.5-2.8-1.2-5.6-1.6-8.4c-0.6-3.7,0.6-7.5,3.2-10.3c1.9-2.3,4.3-4.1,6.9-5.3
		c2.9-1.3,5.9-2.5,9-3.6c4.2-1.4,8.4-2.7,12.6-4c3-1,5.7-2.6,8-4.7c2-1.8,4-3.8,6-5.7c1.6-1.5,3.1-3,4.7-4.4
		c2.1-1.9,4.7-3.2,7.5-3.8c1.8-0.3,3.7-0.6,5.5-1s3.8-1,5.7-1.5c0.9-0.2,1.6-0.8,2-1.6c1.2-2.4,3.2-3.2,5.8-3.3
		c2.9-0.1,5.9,0.2,8.7,1c5.4,1.4,10.6,3.3,15.9,5.2c3.3,1.2,6.7,2.3,10,3.5c0.9,0.4,1.9,0.5,2.9,0.2c1.1-1.3,1.4-3.1,0.9-4.7
		c-0.3-1-0.7-2-1-3.1c-0.3-1-0.6-2.1-0.8-3.1c-0.5-2.3,0.3-4.6,2-6.1c2.9-2.7,6.5-4.5,10.4-4.9c2.1-0.4,4.2,0.6,5.2,2.5
		c0.3,0.4,0.5,0.8,0.7,1.3c0.9,2,2.7,2.6,4.9,2.1c2.4-0.6,4.6-1.6,6.7-2.8c0.4-0.2,0.7-0.9,1-1.4c0.7-1.4,1.4-2.8,2.2-4.1
		c3.6-5.2,8.8-7.6,14.9-8.4c5-0.6,10-0.2,14.8,1.2c1,0.4,2.1,0.3,3.1-0.1c2.1-0.9,4.2-1.7,6.3-2.5c3.7-1.5,7.7-2.2,11.8-2.2
		c5.1,0,10.2,0.6,15.2,0.9c3.4,0.2,6.9,0.6,10.2-0.3C1237.5,64.3,1240.3,63.2,1243,62z M1207.5,96c-3.4,0.1-8.7,0.4-14,0.6
		c-3.4,0.1-6.8,0.9-9.9,2.3c-2.2,1.1-4.6,1.7-7,1.9c-3.3,0.2-6.4,1.3-9,3.2c-0.6,0.4-1.1,0.8-1.7,1.2c-2.7,2-5.8,3.3-9.1,3.8
		c-6,1-11.8,2.8-17.3,5.3c-2.3,1-4.8,1.8-7.2,2.3c-4.7,1.1-9.4,2-14.1,3c-6,1.3-11.9,3-17.3,6.2c-2.9,1.7-6,2.9-9.2,3.8
		c-2.9,0.7-5.5,2.1-7.8,3.9c-3.2,2.6-7.1,4.3-11.2,4.9c-3.1,0.5-6.1,1.5-8.9,2.9c-3.8,1.9-7.7,3.5-11.7,4.8
		c-4.4,1.6-8.8,3.4-13.1,5.1c-1.8,0.7-3.5,1.9-4.8,3.3c-1.5,1.6-2.9,3.1-4.3,4.8c-2,2.4-4.5,4.4-7.2,5.9c-1.7,1-3.5,1.8-5.2,2.7
		c-2,1-4,2.1-6,3.1c-2.2,1.1-4.1,2.7-5.7,4.5c-3.2,3.9-7.2,7-11.8,9c-0.3,0.1-0.5,0.3-0.8,0.4c-2.6,1.1-4.4,3.3-5.1,6.1
		c-0.8,3.1-2.5,5.8-4.9,7.9c-2.6,2.4-5.3,4.7-8,6.9c-4.3,3.4-8.5,7-12.4,10.8c-2,1.9-3.9,3.8-6,5.6c-3.7,3-6.5,6.9-8.1,11.3
		c-2.5,6.4-5.6,12.5-9.2,18.4c-3.1,5.3-6.5,10.5-9.5,15.9c-4,7.2-8.5,14.1-13.3,20.8c-4.5,6.2-7.9,13.1-10,20.5
		c-1.8,7.1-4.6,14-8.2,20.4c-0.3,0.5-0.5,1.1-0.8,1.6c-1.5,3-2.5,6.2-2.9,9.5c-0.6,4.6-1.1,9.1-1.6,13.7c-0.5,5.1-2.1,10-4.7,14.4
		c-1,1.8-2,3.6-3,5.4c-1.7,3-2.7,6.3-3,9.8c-0.3,4-0.7,8-1,12c-0.2,2.6-0.8,5.2-1.7,7.7c-0.6,1.6-1.1,3.3-1.4,5.1
		c-0.8,4.4-1.1,9-0.9,13.5c0.2,6.2,0.6,12.3,1.3,18.5c0.5,4.5,1,9,1.4,13.4c0.5,5.7,0.8,11.3,1.1,17c0.4,7,1.5,14,3.3,20.9
		c1.1,4.5,1.8,9,2.1,13.6c0.4,4.4,0.8,8.8,1.5,13.1c0.8,5.2,2.7,10,4.7,14.8c1.6,3.9,3.2,7.8,4.6,11.8c1.6,4.6,3.6,9.1,5.9,13.4
		c4.2,7.8,8.5,15.7,12.8,23.4c1.3,2.4,2.8,4.7,4.3,7c2.7,4.1,5.1,8.4,7.2,12.8c1.4,2.9,2.6,5.9,3.9,8.9c0.4,1,1,1.9,1.9,2.6
		c1.6,1.3,3,2.9,4,4.7c0.8,1.3,1.6,2.7,2.3,4.1c1.8,3.4,4,6.5,6.6,9.3c1.8,1.8,3.5,3.7,5.2,5.6c4.8,5.2,8,11.7,9.4,18.7
		c0.3,1.5,1.1,2.9,2.3,3.9c5.4,5.1,11.2,9.8,17.4,14c9.9,6.7,19.8,13.4,30.1,19.4c4.5,2.6,8.4,5.7,11,10.3c1.1,2,2.8,3.6,4.7,4.7
		c3,1.8,5.7,4.1,8,6.9c1.3,1.5,2.8,2.7,4.6,3.6c1.8,0.9,3.6,1.9,5.5,2.8c3.6,1.6,6.9,3.7,10,6.1c1.9,1.5,3.9,2.9,5.9,4.4
		c3.7,2.7,7.7,4.9,12,6.6c2.1,0.8,4.2,1.6,6.3,2.4c3.9,1.5,7.8,3,11.7,4.6c2.7,1.1,5.2,2.7,7.4,4.7c2.4,2.2,5.1,4,8.1,5.3
		c2.4,1.1,4.8,2.2,7.3,3c9.5,3.2,19.1,6.4,28.7,9.5c8.2,2.7,16.6,4.7,25.1,5.8c5.1,0.6,10,1.7,14.9,3.2c1.3,0.4,2.6,0.8,3.9,1.1
		c3.7,1,7.5,1.5,11.3,1.5c5.5,0,10.9-0.9,16.4-1.4c4.9-0.6,9.8-0.8,14.7-0.7c4.3,0.2,8.6,0.2,12.9,0.3c2.7,0,5.5-0.3,8.2-0.9
		c7.9-1.6,15.5-4,22.9-7.1c7.9-3.5,16.2-5.1,24.7-6c6.3-0.7,12.7-1.3,18.9-2.4c6.6-1,12.9-3.4,18.6-6.9c1.8-1.2,3.7-2.3,5.5-3.4
		c2.7-1.6,5.6-2.9,8.5-3.8c2-0.6,3.9-1.3,5.9-1.8c10.1-2.5,19.7-6.8,28.2-12.7c3.5-2.4,7-4.6,10.7-6.7c5.4-3,10.2-6.6,13.7-11.8
		c0.2-0.2,0.4-0.5,0.6-0.7c2.2-2.8,4.8-5.2,7.9-7c2-1.2,4-2.4,6.1-3.5c4.7-2.6,9.1-5.8,13-9.5c1.7-1.6,3.5-3.2,5.3-4.7
		c1.5-1.2,3.1-2.3,4.8-3.4c1.2-0.8,2.7-1.2,4.2-1.2c1.3,0,2.5-0.2,3.8-0.3c1.4-0.1,2.6-0.9,3.4-2.1c0.8-1.2,1.7-2.4,2.5-3.7
		c2.3-3.7,4.8-7.2,7.5-10.5c2.5-3,4.8-6.2,7-9.4c1.9-2.7,3.7-5.5,5.6-8.3c1.1-1.6,2.5-3,4.1-4.2c1.3-0.9,2.5-1.9,3.7-3
		c6.2-6.1,11.8-12.9,16.5-20.2c2.1-3.4,4.2-6.8,6.4-10.2c6.4-10.2,11.8-21,16.1-32.3c2.4-6.5,4.7-13.1,7-19.6
		c3.9-11.3,7.5-22.7,13.2-33.2c2-3.7,2.5-7.8,2.7-11.9c0.1-2.8,0-5.7,0-8.5c0-2.2,0-4.5,0.1-6.8c0.1-4.2,1.4-7.9,4.5-10.8
		c0.2-0.2,0.4-0.4,0.6-0.6c1.9-1.9,3.2-4.3,3.7-6.9c0.3-1.2,0.5-2.5,0.7-3.8c0.4-4.1,0.9-8.2,1.1-12.3c0.2-6.4,0.3-12.7,0.2-19.1
		c0-4.8-0.4-9.6-0.6-14.4c-0.2-4.3-0.7-8.6-0.4-12.9c0.2-3.6,0.4-7.2,0.5-10.9c0-1.5,0-2.9-0.1-4.4c-0.3-4-1.6-7.9-2.9-11.7
		s-2.7-7.6-3.7-11.4c-1.9-6.9-4.6-13.6-8.2-19.8c-1.6-2.8-3-5.7-4.4-8.6c-1.2-2.5-2-5.1-2.3-7.8c-0.4-4.3-0.5-8.6-0.2-12.9
		c0.2-4.2,0.3-8.4,0.3-12.6c0-1.9-0.3-3.7-0.7-5.5c-0.5-2.6-1.8-5-3.7-6.9c-0.6-0.5-1.1-1.1-1.7-1.6c-2.6-2.3-4.7-5-6.3-8
		c-1.2-2.1-2.3-4.3-3.4-6.5c-1.8-3.6-3.5-7.2-5.3-10.8c-1.9-4-4.5-7.6-7.5-10.8c-4-4.2-7.4-8.9-10.2-14c-4.6-8.1-9.4-16.1-14-24.1
		c-2.9-5.4-6.8-10.1-11.5-14c-2.7-2.2-4.9-4.8-6.6-7.8c-1.7-3-3.5-5.9-5.1-8.9c-3-6-7.6-11-13.3-14.6c-4.7-3-9.1-6.4-13.2-10.3
		c-3.1-3-7-5.1-11.2-6.1c-0.8-0.2-1.7-0.5-2.6-0.6c-6-1.4-11.8-3.8-17-7.2c-1.9-1.2-3.8-2.4-5.7-3.7c-2.2-1.5-4.4-3-6.5-4.5
		c-7.8-5.7-16.3-10.1-24.6-15c-2.9-1.6-6-2.9-9.2-3.7c-4-1.2-8.1-2.3-12.1-3.5c-3.8-1-7.3-2.9-10.3-5.5c-2.4-2.2-5.6-3.4-8.8-3.4
		c-3.2-0.1-6.4-0.6-9.6-1.4c-8.3-2.2-16.5-5-24.6-7.7c-1.8-0.7-3.6-1.6-5.2-2.8c-1.8-1.2-3.5-2.6-5.3-3.7c-1.3-0.9-2.7-1.6-4.2-2.2
		c-1.8-0.8-3.9-0.6-5.6,0.4c-0.5,0.3-1,0.6-1.5,0.9c-1.4,0.9-3.1,1.2-4.8,0.8c-1.9-0.4-3.7-1.2-5.4-2.2c-2-1.1-3.8-2.3-5.8-3.5
		c-1.7-1-3.5-1.7-5.5-2c-2.1-0.3-4.3-0.5-6.4-0.7L1234,97c-3.4-0.3-6.8-0.8-10.2-1C1219,95.9,1214.2,96,1207.5,96L1207.5,96z"/>
	<path class="st2" d="M907.8,550.8c-1.7-9.3-3.5-18.4-5-27.5c-0.5-4.2-0.8-8.4-0.8-12.6c-0.1-3.9-0.9-7.8-2.2-11.5
		c-0.7-2-1.5-4.1-2.3-6c-3.2-8-5.1-16.5-5.8-25.1c-0.2-1.7-0.3-3.3-0.4-5c-0.2-4.1,0.1-8.2,0.7-12.3c0.4-3.4,0.9-6.8,1.3-10.2
		c0.4-3.8-0.1-7.6-0.6-11.4c-0.8-5.4-1.1-10.9-0.9-16.4c0.3-7.1,1.7-14,4.4-20.6c0.8-1.9,1.5-3.8,2.3-5.7c2.5-5.9,3.7-12.2,3.4-18.6
		c-0.1-2.2,0.1-4.5,0.2-6.8c0.1-2,0.6-3.9,1.4-5.7c0.3-0.8,0.7-1.6,1.1-2.4c2.8-5.5,5.1-11.2,6.8-17.2c1.5-4.9,3.4-9.6,5.8-14.1
		c2.4-4.4,4.2-9.1,5.5-13.9c0.3-1.2,0.5-2.5,0.8-3.7c0.9-4,2.3-7.9,4.3-11.5c3.8-6.6,7.1-13.5,9.9-20.5c0.5-1.3,1.1-2.5,1.7-3.7
		c2.2-4.4,5-8.1,9.5-10.7c0.2-0.6,0.4-1.3,0.5-1.9c1.1-4,3.2-7.7,6-10.7c1.9-2,3.8-4,5.8-5.8c4.6-4.2,8.7-9,12.2-14.2
		c4.7-6.9,10-13.3,15.8-19.3c2.7-2.8,5.1-5.9,7.6-9c1-1.3,2.3-2.4,3.6-3.4c1.7-1.1,3.5-2.2,5.2-3.4c1.9-1.2,3.7-2.7,5.1-4.4
		c1.8-2.4,4.4-4,7.3-4.6c5.1-1.1,9.8-3.7,13.3-7.6c2.2-2.2,4.7-4.1,7.5-5.7c3.4-2,6.4-4.6,8.7-7.7c2.1-2.9,4.9-5.1,8.2-6.4
		c1.1-0.5,2.1-1,3.2-1.4c4.7-1.9,9.4-4,13.8-6.4c2.7-1.6,5.7-2.7,8.7-3.4c1.4-0.2,2.9-0.3,4.4-0.5c3.2-0.5,6.3-1.3,9.3-2.4
		c7.4-2.4,14.9-4.1,22.6-5.1c3.1-0.4,6.2-0.9,9.4-1.4l-0.4-2.2c1-0.8,2.2-1.4,3.5-1.6c4.1-1.2,8.3-2.4,12.4-3.6
		c3.2-0.9,6.3-2,9.4-3.3c2.3-1,4.3-2.4,5.9-4.3c2.8-3.2,6.8-5.2,11-5.4c2.4-0.2,4.9-0.4,7.3-0.5c4.6-0.2,9.2-0.3,13.8-0.3
		c3.2,0,6.5,0.2,9.7,0.5s6.4,1,9.6,1.4c1.4,0.2,2.7,0.2,4.1,0c3.5-0.8,6.8-0.1,10.2,0.4c3.9,0.6,7.7,1.4,11.6,1.9
		c2.3,0.4,4.7,0.3,7-0.3c3.5-1,7-0.4,10.5,0.1c2.6,0.4,5.2,1.1,7.8,1.5c5.2,0.8,10.5,1.2,15.8,1.2c2,0,3.9,0.2,5.8,0.5
		c5.6,0.7,11.2,2,16.5,3.9c6.8,2.1,13.4,4.8,19.8,8.1c5.1,2.6,10.6,4.2,16.2,4.6c4.4,0.4,8.7,1.4,12.8,3.1
		c11.7,4.8,22.8,10.8,33.2,18c4.2,2.8,8.2,6,11.9,9.5c1.8,1.7,3.6,3.3,5.6,4.8c2.6,2.1,5.7,3.5,8.9,4.2c2.3,0.5,4.5,1.4,6.5,2.6
		c3.8,2.2,7.3,4.9,10.5,8c6.1,5.9,11.9,12.2,17.4,18.8c2.3,2.8,4.7,5.6,7.1,8.2c1.7,1.9,3.6,3.6,5.4,5.4c0.8,0.7,1.7,1.3,2.7,1.8
		c4.7,2.3,8.9,5.5,12.3,9.4c2.8,3.1,5.4,6.5,7.8,9.9c3.5,5,6.9,10,10.5,14.9c3.6,4.9,6.5,10.3,8.6,16c0.4,1.3,1,2.5,1.5,3.8
		c1.2,2.8,2.8,5.4,4.7,7.8c1.8,2.1,3.6,4.2,5.2,6.3c2.3,2.8,4,6.1,4.8,9.7c0.5,3.1,0.5,6.3,0,9.4c-0.2,2.1-0.5,4.3-0.7,6.4
		c-0.5,4.8,0.8,9.7,3.8,13.5c0.6,0.8,1.2,1.6,1.8,2.3c2.7,3.3,4.7,7,6,11c0,0.1,0.1,0.2,0.1,0.3c2.9,9,5.8,18.1,8.6,27.1
		c1.7,5.7,2.7,11.7,3,17.6c0.4,6.1,1.1,12.1,2.3,18c0.5,3.2,1.7,6.3,3.5,9c1.5,2.1,1.6,4.6,1.5,7c-0.1,2.2-0.3,4.5-0.4,6.8
		c-0.2,2.7-0.3,5.5-0.5,8.2c-0.3,3.7-0.5,7.4-0.9,11.1c-1,10.3-1.9,20.7-1.3,31.1c0.3,7,0.1,13.9-0.5,20.9
		c-0.3,4.3-0.8,8.6-0.3,12.9c0.2,1.2,0,2.4,0.1,3.5c0.1,2.4-0.5,4.7-1.9,6.7c-1.5,2.4-3.1,4.8-4.9,7c-4.9,6-8.5,12.9-10.9,20.3
		c-1.5,4.5-3.1,8.9-4.7,13.3c-2,5.7-4.8,11-8.3,15.8c-7.2,9.7-13.3,20.1-18.3,31c-2.6,5.6-5.6,11-8.6,16.4
		c-2.3,4.2-5.1,8.2-8.4,11.6c-1.6,1.7-3,3.6-4.1,5.7c-1.2,2.1-2.8,4.1-4.6,5.7c-3.5,3.2-7.3,6-11.3,8.3c-4.6,2.7-9.2,5.2-13.8,7.8
		c-4.2,2.3-8.3,4.8-12.3,7.5c-5.5,3.8-10.2,8.7-13.7,14.4c-1.2,2-2.6,3.9-3.9,5.9c-2,2.9-4.6,5.4-7.6,7.3c-6.1,3.7-11.9,8-17.1,12.9
		c-1.1,1-2.3,1.9-3.4,2.8c-2.5,2.1-5.4,3.6-8.6,4.3c-4.3,1-8.3,3.1-11.6,6c-1.3,1.1-2.6,2.1-3.8,3.2c-3.4,3-7.3,5.3-11.6,6.8
		c-5,1.8-10,3.4-15,5.1c-4.9,1.5-9.8,2.6-14.9,3.3c-4.2,0.5-8.3,1.4-12.3,2.8c-2,0.6-3.8,1.6-5.4,2.9c-5.7,4.9-12.5,7.6-19.6,9.5
		c-6.7,1.6-13.4,2.7-20.3,3.1c-7.9,0.6-15.9,0.3-23.8,0.6c-6.7,0.2-13.3,0.7-20,0.9c-5.3,0.3-10.5,1-15.7,2.2
		c-2.3,0.4-4.7,0.5-7,0.2c-7.9-0.7-15.7-2.3-23.2-4.8c-2.6-0.8-5.2-1.8-7.8-2.7c-2.5-0.8-4.9-2-7.1-3.4c-2.3-1.5-5-2.3-7.7-2.5
		c-2.6-0.3-5.3-0.5-7.9-1c-4.7-1-9.3-2.5-13.6-4.6c-3.8-1.7-7.6-3.6-11.4-5.3c-4.5-2.2-9.2-3.9-14-5.1c-1.6-0.3-3.3-0.7-4.9-0.9
		c-2.6-0.4-5.1-1.4-7.3-2.9c-1.9-1.3-3.6-2.6-5.3-4.1c-8.2-7.6-17.9-13-28.3-16.9c-2.5-0.9-4.7-2.4-6.6-4.3c-1.5-1.5-3-3.1-4.6-4.6
		c-1-1.1-2.6-1.5-4-1.2c-5.9,1.1-11.9-0.7-16.4-4.7c-2.1-1.8-4-3.8-5.6-6c-2.3-3-4.4-6.2-6.5-9.4c-2.9-4.4-6.3-8.5-10.2-12.1
		c-2.2-2.1-4.8-3.8-7.6-5c-2.4-1-4.8-2.1-7.2-3.2c-3.2-1.5-6.2-3.4-8.8-5.9c-2.2-2.2-4.7-4.2-7.4-5.8c-0.8-0.6-1.4-1.3-1.9-2.2
		c-3-5-6-9.9-8.8-14.9c-5.1-9.2-10.1-18.6-15.1-27.9c-2.7-5-5.8-9.9-9.2-14.5c-0.3-0.5-0.7-1-1-1.4c-5.4-6.9-9.9-14.4-13.4-22.4
		c-0.7-1.5-1.5-3-2.3-4.5C914.3,556.8,911.4,553.4,907.8,550.8z M1015,185.4c-2.1,2.3-4.4,4.3-7,6.1c-1.2,0.8-2.4,1.7-3.6,2.6
		c-3,2.1-5.5,4.8-7.4,7.9c-2.4,4.1-5.5,7.7-9.1,10.7c-2.2,1.9-4.2,4.1-5.8,6.6c-1.6,2.4-3.2,4.7-4.9,7c-4,5.9-8.8,11.3-14.1,16.1
		c-3.6,3-6.1,7-7.2,11.5c-0.8,3.5-2.9,6.5-5.8,8.6c-0.5,0.3-0.9,0.8-1.4,1.1c-2.1,1.6-3.8,3.7-5,6.1c-1.4,2.9-2.9,5.8-4.2,8.7
		c-1.8,3.9-3.5,7.9-5.3,11.8c-2,4.5-4.1,8.9-5.9,13.4c-6.3,16.2-12.2,32.6-19.6,48.4l-0.2,0.5c-1.9,4.3-2.8,9-2.5,13.7
		c0.2,3.1,0.1,6.3,0.2,9.4c0,3.1-0.6,6.3-1.8,9.1c-0.7,1.6-1.4,3.2-2.2,4.8c-1,2-1.9,4.1-2.8,6.1c-1.6,3.7-2.6,7.6-2.7,11.6
		c-0.2,6.4-0.1,12.7,0.4,19.1c0.6,7.4,0.6,14.9,0,22.3c-0.5,5.5-0.6,11-0.4,16.4c0.3,5.2,1,10.3,1.5,15.5c0.4,3.2,1.2,6.4,2.3,9.4
		c0.5,1.5,1,3,1.5,4.4c2.5,6.2,3.7,12.8,3.8,19.5c0,6.9,1,13.7,2.7,20.3c0.8,3,1.7,6,2.3,9.1c0.6,3.3,2.1,6.4,4.3,8.8
		c3.3,3.8,6,8,7.9,12.6c2.8,6.1,6.1,11.9,10,17.3c2,2.8,3.9,5.6,5.8,8.5c2.2,3.4,4.4,6.8,6.3,10.2c4.9,8.7,9.6,17.5,14.4,26.3
		c3.2,6,6.8,11.7,10.8,17.1c4.5,6,10.1,10.7,17.2,13.3c1.4,0.5,2.7,1.1,4.1,1.7c4.9,2,9.3,5.1,12.8,9.1c1.9,2.2,3.8,4.5,5.6,6.8
		c4,5.1,7.9,10.2,11.9,15.3c0.8,1,1.6,2,2.5,2.9c1.9,2.1,4.6,3.2,7.3,3c1.3,0,2.5-0.1,3.8-0.2c3.4-0.4,6.7,0.8,9.1,3.2
		c0.8,0.8,1.7,1.6,2.6,2.4c2.3,2.4,5.1,4.3,8.1,5.7l9.4,4.2c4.9,2.2,9.5,5.1,13.7,8.5c2.5,2,5,4,7.6,6c2.9,2.2,6.2,3.8,9.8,4.5
		c2,0.4,4,0.8,6,1.2c5,1,9.7,3.1,14.3,5.2s9.2,4.2,13.9,6.4c4.4,2,9.1,3.2,13.9,3.4c4.6,0.2,9.1,1.5,13.2,3.7c2.9,1.5,5.9,2.7,9,3.5
		c4.4,1.2,8.9,2.4,13.3,3.7c3.5,1.1,7.2,2,10.8,2.5c3.7,0.6,7.4,0.5,11.1-0.1c6-1.1,12-1.8,18.1-1.9l38.2-1.2
		c7.4-0.2,14.8-1.5,21.9-3.6c6.4-1.9,12.5-4.5,17.7-9c2.7-2.4,6-3.6,9.5-4.5c4.1-1,8.2-1.8,12.4-2.3c4.6-0.6,9-1.8,13.2-3.6
		c4.1-1.9,8.4-3.3,12.8-4.2c4.3-0.8,8.2-2.8,11.4-5.7c1.4-1.2,2.8-2.4,4.2-3.6c3-2.7,6.6-4.7,10.5-5.7c4.3-1.2,8.2-3.4,11.4-6.4
		l6.5-5.9c2.6-2.5,5.6-4.6,8.9-6.2c2.2-1,4.2-2.6,5.6-4.6c1.7-2.3,3.3-4.6,4.9-7c2.2-3.4,4.8-6.7,7.8-9.6
		c5.8-5.9,12.4-10.8,19.7-14.7c4.1-2.1,8.2-4.2,12.2-6.3c3.4-1.7,6.7-3.8,9.7-6c2.7-1.9,5-4.5,6.6-7.4c1.4-2.6,3.1-5,5.2-7.1
		c2.4-2.5,4.4-5.3,6.1-8.2c2.4-4.2,4.8-8.3,7.1-12.5c4.8-9,9.4-18,14.1-27.1c1.5-3.2,3.5-6.1,5.9-8.7c2.8-2.8,5-6.1,6.5-9.7
		c0.8-1.9,1.7-3.8,2.4-5.7c1.8-4.7,3.5-9.4,5.1-14.1c3.2-8.9,7-17.4,13.3-24.7c0.8-0.9,1.4-1.9,2-2.9c1.4-1.8,2-4.1,1.9-6.3
		c-0.1-2.2-0.2-4.5-0.3-6.8c-0.2-2.2,0-4.3,0.7-6.4c1.1-3.2,1.6-6.5,1.5-9.8c0-1.5,0-2.9-0.1-4.4c-0.2-4.2-0.5-8.4-0.7-12.6
		c-0.4-8.6,0.6-17.2,1.3-25.8c0.6-6,1.1-12.1,1.5-18.1c0.2-2.7,0.3-5.5,0.4-8.2c0.1-3.1-0.6-6.1-2.1-8.7c-0.7-1.2-1.2-2.4-1.6-3.8
		c-0.8-3.5-1.5-7.1-2-10.7c-0.7-4.9-1.1-9.7-1.7-14.6c-0.2-2.4-0.7-4.8-1.4-7.2c-1.6-4.6-2.7-9.4-3.9-14.1
		c-1.5-6.5-3.4-12.9-5.6-19.1c-1.4-3.9-3.4-7.5-5.9-10.8c-0.8-1-1.5-2-2.3-3.1c-1.5-2.2-2.7-4.6-3.3-7.2c-1.4-5.5-1.7-11.3-0.7-16.9
		c1-5.6,0.1-10.5-3.6-14.9c-1.2-1.4-2.3-3-3.5-4.3c-4-4.3-7.1-9.4-9.2-14.9c-0.4-1.2-1-2.4-1.5-3.5c-1.4-2.7-2.7-5.4-4.4-8
		c-4.6-7-9.2-13.9-14-20.7c-2-2.9-4.3-5.6-6.6-8.3c-1.7-2-3.9-3.6-6.4-4.6c-2.5-1.1-4.9-2.5-6.9-4.4c-3.2-2.7-6.2-5.7-9-8.9
		c-3.3-3.8-6.5-7.6-9.7-11.4c-3.3-4-6.9-7.9-10.7-11.5c-4.5-4.3-9.7-7.6-15.5-9.9c-1.9-0.7-3.8-1.5-5.7-2.3
		c-4.2-1.5-7.9-4.1-10.6-7.6c-1.6-2-3.4-3.8-5.5-5.2c-4.8-3.3-9.5-6.6-14.3-9.8c-7.3-4.7-15.1-8.7-23.3-11.8c-5.1-2-10.5-3.1-16-3.4
		c-3.6-0.1-7.2-1-10.5-2.5c-1.4-0.7-2.8-1.4-4.2-2.1c-3.8-2-7.8-3.7-11.8-5.2c-3.1-1.1-6.3-2.1-9.4-3.2c-6.4-2.2-13.2-2.9-19.9-3.5
		c-4.8-0.4-9.6-0.8-14.3-1.4c-3.4-0.6-6.8-0.9-10.2-1c-2.8,0-5.5,0.1-8.2-0.1c-3.4-0.2-6.9-0.3-10.2-0.7c-7-0.9-13.9-2.1-20.9-2.9
		c-8-0.9-16-1.2-24.1-1c-4.9,0.2-9.8,0.3-14.7,0.6c-1.7,0.1-3.3,0.3-5,0.5c-2.6,0.3-4.9,1.5-6.7,3.4c-0.9,0.9-1.8,1.8-2.7,2.7
		c-1.4,1.4-3.1,2.4-4.9,3c-1.2,0.4-2.3,1-3.5,1.6c-1.7,0.8-3.3,1.7-5,2.4c-3.7,1.5-7.6,2.6-11.5,3.5c-5.8,1.4-11.6,2.7-17.4,4.1
		c-3.4,0.9-6.9,1.5-10.4,1.8c-4.3,0.2-8.5,1.3-12.4,3.2c-2.9,1.5-6.1,2.3-9.3,2.4c-3.2,0.3-6.4,1.2-9.3,2.6
		c-5.1,2.3-10.1,4.7-15.2,7.1c-1,0.5-1.9,1-2.9,1.5c-2.3,1.1-4.3,2.8-5.8,4.8c-2.3,2.9-5.1,5.5-8.2,7.5c-2.9,2.1-5.7,4.4-8.6,6.7
		c-1.8,1.5-3.6,3-5.5,4.4c-2.7,2-5.7,3.4-9,4.2C1018.3,185,1016.7,185.2,1015,185.4z"/>
	<path class="st2" d="M915.3,445.6c0.4-5.6,0.7-11.1,1.1-16.7c0.3-4.3,0.6-8.6,0.8-12.9c0.1-1.7,0-3.3-0.3-5
		c-0.5-3.2-0.2-6.5,0.7-9.6c0.9-2.8,1.9-5.5,2.9-8.3c1.1-3.1,2.4-6.2,3.3-9.4c0.6-1.8,0.8-3.6,0.8-5.5c0-3.9,0.6-7.8,1.7-11.6
		c1.3-5.4,3.1-10.7,5.2-15.9c3.9-9.6,7.2-19.5,9.8-29.5c0.8-3,1.8-6,2.9-8.9c1.4-4,3.5-7.7,6.1-11c1.3-1.6,2.5-3.2,3.8-4.8
		c3-3.5,5.2-7.7,6.4-12.1c1.9-6.9,5.1-13.4,9.5-19c0.8-1.1,1.6-2.2,2.3-3.4c2.9-4.6,6.2-8.8,10-12.6c2.4-2.6,4.7-5.3,6.9-8
		c1.5-1.7,2.8-3.5,4.3-5.2c1.4-1.7,3.1-3,5.1-3.8c0.6-0.3,1.2-0.6,1.8-0.9c2.9-1.2,5.4-3.3,7.2-5.9c0.2-0.3,0.5-0.6,0.7-1
		c2.3-3.5,5.4-6.5,9-8.7c3.4-2.1,6.4-4.8,8.9-8c2-2.5,4-5.1,6-7.6c1.2-1.5,2.3-2.9,3.5-4.3c2.2-2.7,4.8-5,7.7-6.8
		c3.4-2.1,6.5-4.8,9.1-7.8c0.7-0.8,1.5-1.6,2.3-2.3c1.6-1.7,3.7-3,5.9-3.7c3.9-1.2,7.3-3.5,9.8-6.6c1.2-1.3,2.4-2.6,3.6-3.8
		c1.9-2,4.5-3.2,7.2-3.5c2.8-0.3,5.6-0.7,8.5-0.9c3.4-0.4,6.7-1.4,9.8-2.8c1.9-0.8,3.8-1.6,5.6-2.5c4.3-1.8,8.8-2.9,13.4-3
		c2.2-0.1,4.5-0.4,6.7-0.7c1.6-0.4,3.2-0.9,4.7-1.5c0.9-0.4,1.8-0.8,2.6-1.4c2.7-1.7,5.6-2.8,8.7-3.4c2.3-0.4,4.5-1.4,6.4-2.8
		c0.6-0.4,1.1-0.8,1.7-1.2c2.4-1.8,5.3-3,8.4-3.2c3.6-0.3,7.1-1.3,10.4-2.9c1-0.5,2-0.9,3-1.3c2.2-1,4.7-1.5,7.1-1.5
		c2.4,0,4.9,0.1,7.3,0.2c1.6,0,3.1-0.1,4.7-0.1c1.8,0,3.5-0.5,5-1.4c1.9-1,4-1.6,6.2-1.6c7.9-0.5,15.9,0.1,23.7,1.6
		c6.6,1.3,13.2,2.6,19.8,4c7.4,1.5,14.9,2.5,22.4,2c6.3-0.5,12.6,0.7,18.3,3.3c0.8,0.4,1.6,0.6,2.4,1c7.7,3.8,15.9,5.9,24.3,7.6
		c3.5,0.7,7.1,1.5,10.6,2.4c3,0.7,5.8,1.8,8.5,3.2c8.5,4.6,17.3,8.7,25.6,13.8c3.1,1.7,5.8,4,7.9,6.9c1.8,2.5,4.5,4.2,7.5,4.8
		c3,0.8,6.1,1.4,9.2,1.8c4.6,0.6,8.9,2.4,12.5,5.3c3.7,2.9,7.5,5.7,11.3,8.4c5.2,3.7,10,8,14.2,12.7c1.6,1.8,3.2,3.7,4.6,5.7
		c2.2,3.3,5.4,5.8,9.1,7.1c5,1.6,9.1,5.4,11.2,10.2c3.1,6.6,7.4,12.5,12.9,17.3c2.5,2.2,4.5,5,5.7,8.1c0.9,2.7,3.1,4.9,5.9,5.7
		c2.1,0.8,4,2.2,5.2,4.2c1.8,2.6,3.2,5.4,4,8.5c1.1,4.2,2,8.4,3,12.6c0.6,2.4,1.1,4.8,1.7,7.1c0.8,3.5,2.2,6.9,4,10.1
		c4.6,7.8,8.5,16.1,11.6,24.6c1.2,3.4,3,6.6,4.5,9.9c0.9,2,2.2,3.7,3.7,5.3c1.8,1.8,3,4.1,3.5,6.6c1.4,6.7,3.4,13.2,4.5,20
		c0.3,1.9,0.8,3.8,1.3,5.7c0.9,3.2,1.5,6.5,1.6,9.8c0.1,3.3,1,6.4,2.8,9.1c2,2.9,2.3,6.6,0.8,9.8c-3.1,7.3-3.2,15-2.7,22.8
		c0.4,6.6,1.9,13,3.4,19.4c0.8,3.4,1.5,6.9,1.9,10.4c0.8,5.6,0,10.9-3.4,15.7c-0.5,0.7-0.8,1.5-1,2.4c-1.8,10.9-5.6,21.4-11.2,31
		c-2.4,4.3-4.1,8.9-4.8,13.7c-1.3,7.5-2.7,15-4.1,22.5c-1.2,7.5-3.2,14.9-5.8,22.1c-1.8,4.9-4.3,9.4-7.5,13.6
		c-8.1,10.5-14.8,21.9-21.4,33.3c-2,3.4-3.8,6.8-5.8,10.2c-1.4,2.4-2.9,4.7-4.5,6.9c-2.9,4.2-6.5,7.9-10.8,10.7
		c-5.3,3.5-10.2,7.6-14.7,12.1c-2.4,2.4-5.1,4.6-7.6,6.9c-2,1.8-3.9,3.5-5.8,5.5c-4.2,4.6-9.2,8.3-14.8,10.8c-0.3,0.2-0.7,0.4-1,0.5
		c-5.6,2.5-10.4,6.4-14,11.3c-0.7,0.9-1.5,1.8-2.2,2.7c-3.1,4-7.2,7.3-11.9,9.4c-3.3,1.5-6.5,3.1-9.9,4.5
		c-5.2,2.2-10.3,4.8-15.1,7.9c-3.6,2.2-7.1,4.5-10.7,6.7c-4.8,3-10.1,5.3-15.5,6.9c-4.9,1.3-10,2-15.1,2.1
		c-6.1,0.3-12.1,0.4-18.2,0.7c-5.9,0.3-11.7,1.2-17.4,2.6c-7.6,1.9-15.2,3.8-22.7,5.8c-5.7,1.5-11.5,2.5-17.3,3.1
		c-2,0.2-3.9,0.2-5.9,0.1c-3.5-0.2-7-0.6-10.5-0.8s-7-0.7-10.5-0.8c-9.4-0.3-18.8-0.4-28.2-0.6c-8-0.2-16-1.3-23.8-3.3
		c-7.2-1.8-14.4-3.7-21.6-5.6c-1.8-0.5-3.5-1.2-5.2-2c-2.7-1.2-5.6-1.9-8.5-2c-3.3,0-6.4-1-9.1-2.9c-2.1-1.4-4.2-2.9-6.2-4.5
		c-3.2-2.7-6.8-5-10.6-6.8c-2.8-1.3-5.4-2.8-7.8-4.6c-3.2-2.3-6.6-4.2-10.2-5.8c-4.2-2-8.3-3.9-12.5-5.8
		c-7.5-3.2-14.2-8.1-19.3-14.5c-1.7-2.1-3.6-4.1-5.4-6.2c-3.9-4.3-8.3-8-13.3-11c-3.1-1.9-6.3-3.6-9.3-5.5s-6-3.7-8.8-5.8
		c-4.5-3.2-8.1-7.5-10.6-12.4c-0.9-1.8-1.9-3.7-2.7-5.5c-2.2-4.8-5.1-9.3-8.5-13.4c-3.8-4.6-7.3-9.5-10.6-14.4c-2-3-4.4-5.8-6.6-8.7
		c-2.5-3.3-5.1-6.5-7.5-9.8c-5.2-7.2-8.8-15.4-10.7-24c-0.5-2.2-1.2-4.3-1.7-6.5c-0.3-1.1-0.5-2.3-0.7-3.5c-0.1-1.3-0.5-2.5-1.1-3.6
		c-1-1.8-2-3.6-3-5.4c-3.4-5.7-6.3-11.7-8.5-18c-1-2.6-1.5-5.3-1.5-8c0.1-4.6-1.5-9-4.4-12.5c-0.1-0.1-0.2-0.3-0.3-0.5
		c-4.5-5.2-6.4-11.4-7-18c-0.5-5.6-0.8-11.1-1.2-16.7s-0.7-11.1-1-16.7c-0.1-2.6,0-5.3,0-7.9L915.3,445.6z M1183,136.8v-0.2
		c-1,0-2,0-2.9,0c-4.3-0.1-8.6,0.7-12.6,2.4c-2.1,0.9-4.2,1.7-6.2,2.6c-5,2.3-10.2,4.1-15.5,5.3c-4.5,0.9-8.8,2.7-12.6,5.4
		c-0.3,0.2-0.7,0.4-1,0.6c-2.2,1.4-4.6,2.3-7.1,2.7c-2.8,0.4-5.6,0.8-8.4,1.1c-2.9,0.2-5.8,0.8-8.6,1.7c-2,0.7-4,1.5-6,2.3
		c-3.5,1.4-7.2,2.5-11,3.1l-8.4,1.2c-3.5,0.4-6.6,2.1-8.8,4.8c-0.7,0.9-1.6,1.8-2.3,2.7c-2.2,2.9-5.3,5-8.9,5.9
		c-2.8,0.7-5.3,2.3-7,4.6c-2.7,3.4-6,6.2-9.7,8.5c-2.4,1.5-4.6,3.4-6.4,5.6c-1.3,1.5-2.5,3-3.7,4.6c-2.1,2.7-4.2,5.4-6.4,8.1
		c-1.9,2.5-4.2,4.7-6.8,6.4c-5.1,3.3-9.6,7.5-13,12.5c-1.7,2.4-4,4.3-6.8,5.5c-0.8,0.4-1.6,0.8-2.4,1.2c-1.5,0.7-2.8,1.9-3.5,3.4
		c-1.6,3-3.7,5.8-6.2,8.2c-2.9,3-5.8,5.8-8.8,8.7c-0.8,0.7-1.4,1.6-2,2.5c-3.4,5.7-6.8,11.5-10.1,17.2c-3.3,5.6-6,11.5-8,17.6
		c-0.4,1.2-1.1,2.3-2,3.2c-7.2,7.3-12.4,16.3-15,26.2c-0.5,1.8-0.8,3.6-1,5.5c-0.2,2.4-0.8,4.8-1.8,7.1c-1.2,2.8-2.5,5.5-3.9,8.2
		c-1.5,3.2-3.2,6.3-4.7,9.5c-0.9,2-1.6,4.2-2,6.4c-0.5,4-1.5,7.9-2.8,11.7c-0.8,2.3-1,4.8-0.5,7.2c0.2,1.4,0.3,2.9,0.3,4.4
		c0,0.9-0.1,1.8-0.5,2.6c-1.9,4.5-3,9.3-4.5,14c-1.7,5-2.5,10.3-2.2,15.6c0.5,8-0.5,15.8-1.3,23.7c-0.8,6.3-0.8,12.7,0,19
		c0.6,4,0.9,8,0.8,12c-0.1,3.2-0.1,6.5-0.1,9.7c0,2.8,0,5.7,0.2,8.5c0.4,6.4,2.6,12,7.6,16.3c0.9,0.9,1.7,1.8,2.4,2.7
		c1.7,1.8,2.7,4.2,2.7,6.7c0,0.4,0.1,0.8,0,1.2c0,4.7,1,9.4,3.1,13.7c2,4.4,4.1,8.7,6.3,12.9c3.1,5.8,5.3,12,6.5,18.5
		c1.3,7.6,4,14.8,8.1,21.3c2.2,3.4,4.4,6.7,6.7,10c3.8,5.3,7.7,10.4,11.4,15.7c2.6,3.7,5.4,7.2,8.5,10.5c3.9,4.1,7,8.7,9.4,13.8
		c1.3,2.7,2.7,5.2,4.1,7.8c2.1,3.8,5,7.1,8.5,9.6c2.2,1.6,4.5,3.1,6.8,4.5c2.9,1.8,5.8,3.6,8.7,5.4c6.9,4.3,13,9.8,18,16.3
		c1.4,1.9,3,3.6,4.5,5.4c4.1,4.9,9.3,8.8,15.2,11.3c4.3,1.8,8.6,3.7,13,5.3c4.9,1.8,9.6,3.9,13.4,7.6c0.1,0.1,0.3,0.2,0.5,0.4
		c1.7,1.5,3.8,2.5,6,3c3.1,0.7,5.8,2.4,7.9,4.8c1.1,1.3,2.5,2.5,4,3.4c4.1,2.5,8.3,4.8,13.3,4.8c0.4,0,0.8,0.1,1.2,0.2
		c3.3,0.5,6.5,1.5,9.6,2.7c9.1,3.4,18.4,6,27.9,7.8c6.5,1.3,13.2,2,19.8,2.1c8.7,0,17.4,0,26.2,0c2,0,3.9,0,5.9,0.2
		c6.1,0.6,12.3,1.4,18.4,1.9c3.5,0.3,7.1,0.3,10.6,0c5.8-0.5,11.4-1.5,17-3.1c9.7-2.7,19.5-4.9,29.4-7c3.9-1,8-1.2,12-0.5
		c1.7,0.2,3.3,0.2,5,0c4-0.5,8-1,11.9-1.6c7.7-1.1,15-3.7,21.7-7.7c2.9-1.8,5.9-3.5,8.7-5.4c6.6-4.4,13.7-8.1,21-11.1
		c3.3-1.3,6.4-2.9,9.6-4.5c3.5-1.8,6.6-4.3,9.1-7.3c0.9-1.1,1.9-2.2,2.8-3.4c3.1-3.9,7.1-7.1,11.6-9.3c1.5-0.7,3-1.5,4.5-2.2
		c3.6-1.7,6.9-4.2,9.5-7.3c1.7-1.9,3.4-3.8,5.3-5.5c4.9-4.2,9.8-8.4,14.8-12.6c3.8-3.2,7.8-6.3,11.6-9.5c4-3.3,7.4-7.3,10.1-11.8
		c1.3-2.3,2.6-4.6,3.9-6.9c8-14.8,16.9-29.1,26.7-42.9c1-1.3,1.9-2.8,2.8-4.2c3.8-6,6.5-12.6,8-19.5c1.3-5.7,2-11.4,2.8-17.1
		c0.6-4.2,1.2-8.3,2-12.5c1-4.7,2.7-9.2,4.9-13.5c1.8-3.5,3.5-7,5.2-10.5c1.8-3.6,3.1-7.4,3.8-11.4c1.3-6.8,3-13.6,6-19.9
		c1.7-3.9,2.2-8.2,1.3-12.4c-0.9-5.1-1.9-10.2-2.9-15.3c-1.4-6.2-2.2-12.5-2.3-18.8c-0.1-3.7,0.5-7.5,1.7-11
		c0.3-0.7,0.5-1.5,0.7-2.2c1.2-4.3,1.3-8.5-0.9-12.5c-1.2-2.3-1.7-4.8-1.7-7.4c0-2.6-0.6-5.1-1.9-7.3c-0.8-1.4-1.2-2.9-1.2-4.5
		c-0.1-1.8-0.3-3.5-0.3-5.3c-0.1-2.5-0.7-4.9-1.8-7.1c-1.3-2.6-2.1-5.3-2.4-8.1c-0.4-3.3-1.8-6.5-4-9c-1.7-2-3.1-4.3-4.1-6.8
		c-2.3-5.5-4.5-11.1-6.7-16.6c-2.5-6.2-5-12.3-8.7-18c-1-1.6-1.8-3.2-2.4-5c-0.5-1.4-0.9-2.8-1.3-4.2c-1.4-5-2.7-10-4.1-15
		c-1.1-3.9-2.5-7.6-4.4-11.2c-0.4-1-1.2-1.7-2.2-2.1c-3.1-1.3-5.8-3.5-7.6-6.3c-0.7-1-1.3-1.9-2-2.9c-1.9-3.1-4.2-5.9-6.7-8.5
		c-4.5-4.4-8.2-9.6-11-15.2c-0.8-1.7-1.8-3.3-2.8-4.8c-1.5-2.5-3.8-4.3-6.6-5.1c-0.8-0.3-1.7-0.6-2.5-0.9c-2.8-0.9-5.3-2.8-6.8-5.3
		c-0.6-0.9-1.2-1.8-1.8-2.7c-1.7-2.9-3.9-5.4-6.4-7.6c-1.8-1.6-3.7-3.2-5.6-4.7c-5.9-4.5-12.1-8.7-17.8-13.5c-2-1.7-4.5-2.9-7.1-3.3
		c-2.2-0.4-4.4-0.8-6.7-1.1c-3.1-0.3-6.2-1.1-9.1-2.1c-1.9-0.8-3.6-2-4.8-3.7c-0.8-1-1.5-2.1-2.3-3.1c-1-1.4-2.5-2.5-4.2-3.1
		c-1.4-0.5-2.7-1.2-3.9-2c-6.7-4.7-14-8.3-21.1-12.1c-3.3-1.8-6.8-3.2-10.4-4c-4.2-0.9-8.4-2-12.6-2.8c-8.9-1.7-17.6-3.9-25.6-8.3
		c-4.9-2.6-10.4-3.7-15.9-3.1c-7.6,0.6-15-0.4-22.5-1.8c-8.2-1.6-16.3-3.4-24.5-4.6c-6.7-1-13.5-1.3-20.2-1
		c-1.1,0.1-2.1,0.4-3.1,0.8c-1.8,0.9-3.6,1.4-5.6,1.6C1189.1,136.4,1186,136.6,1183,136.8z"/>
	<path class="st2" d="M1478.1,341.5c5.1,4.7,8.4,10.5,11.1,16.6c1.2,2.8,2.3,5.6,3.4,8.5c1.9,4.8,3.8,9.7,5.7,14.5
		c0.4,0.9,0.5,1.9,0.3,2.8c-1.3,4.9-1.3,10.2,0,15.1c0.3,1,0.4,2.1,0.7,3.1c2.1,7.1,2.1,14.3,1.3,21.5c-0.5,5.1-1.5,10.1-3,15
		c-0.7,2.2-1.2,4.5-1.6,6.9c-0.6,2.7-0.1,5.6,1.4,7.9c0.2,0.4,0.5,0.8,0.8,1.2c2,2.6,2.6,5.6,2.8,8.8c0.4,6.5,0.1,12.9-0.9,19.3
		c-0.6,3.7-1.3,7.3-1.9,11c-0.7,3.8-2.1,7.4-4.1,10.6c-1.4,2.5-2.9,4.9-4.4,7.3c-3.4,5.2-6.1,10.8-8,16.6c-0.7,2.2-1.6,4.4-2.3,6.7
		c-1.2,3.6-2.7,7.1-4.6,10.5c-3.6,6.3-6,13.2-7.1,20.4c-0.2,1.3-0.5,2.5-0.8,3.8c-0.6,3.1-1.8,6-3.4,8.7c-2.2,3.5-3.9,7.2-5.1,11.2
		c-0.9,2.9-2.2,5.7-3.9,8.2c-1,1.5-2,2.9-3,4.3c-2.8,3.7-5.3,7.6-7.4,11.6c-2.9,5.6-6.9,10.5-11.7,14.5c-1.9,1.6-3.7,3.3-5.4,4.9
		c-1.1,1-2.1,2-3,3.2c-1.6,2.2-3.7,4-6.1,5.3c-2.1,1.2-4,2.9-5.5,4.8c-1.2,1.4-2.4,2.8-3.6,4.3c-3.1,4-7,7.4-11.4,10
		c-1.6,0.9-3.2,1.9-4.8,2.8c-7.4,4.1-14.8,8.1-22.1,12.2c-7.1,4-14.4,7.4-22,10.3c-3.3,1.2-6.5,2.8-9.6,4.3c-3,1.3-5.4,3.6-7,6.5
		c-1.7,3.2-4.9,5.3-8.5,5.6c-1.9,0.3-3.8,0.7-5.8,0.9c-2.3,0.3-4.6,1.1-6.6,2.3l-0.3,0.1c-4,2.8-8.5,3.5-13.1,3.4
		c-6.3-0.2-12.5,0.6-18.5,2.5c-4.6,1.3-9.3,2.1-14.1,2.5c-4.3,0.6-8.5,1.4-12.6,2.6c-4.2,1-8.4,2-12.6,2.9c-5,1-10.1,1.4-15.2,1.1
		c-3.5-0.1-7-0.5-10.5-1.3c-1.7-0.4-3.4-0.9-5.1-1.5c-4.1-1.5-8.3-2.2-12.7-2.1c-3.6,0-7.2,0.1-10.9,0.2c-3.7,0.2-7.5,0-11.1-0.8
		c-1.5-0.4-3-0.8-4.5-1.4c-3.9-1.4-7.9-2.2-12.1-2.2c-2.8-0.1-5.7-0.1-8.5,0c-6.1,0.1-12.1-1.4-17.5-4.2c-2.2-1.1-4.3-2.3-6.4-3.5
		c-4.5-2.6-9.2-4.9-14.3-5.8c-0.6-0.1-1.1-0.4-1.5-0.8c-6.6-5.9-14.6-9.5-22.7-12.7c-2.7-1.1-5.5-2-8.3-2.9
		c-5.4-1.8-10.4-4.6-14.8-8.2c-2.7-2.2-5.3-4.3-7.9-6.6c-12-10.6-23.9-21.2-35.9-31.8c-3.4-3.1-7.2-5.7-11.3-7.8
		c-1-0.4-1.8-1.2-2.1-2.2c-1.5-4.1-3.8-7.8-6.7-11c-3.4-3.8-6.6-7.8-9.4-12c-1.3-2.1-3.1-3.8-5.2-5.1c-1.8-1.2-3.7-2.2-5.5-3.5
		c-1.5-1-2.9-2-4.2-3.2c-1.8-1.6-2.8-3.9-2.8-6.3c-0.1-4.3-1.1-8.6-2.9-12.5c-1.5-3.6-3-7.2-4.7-10.8c-1.1-2.2-2.2-4.4-3.5-6.4
		c-2.7-4.3-4.7-9-6-14c-1.2-4.8-3.3-9.3-6.4-13.2c-3.8-4.9-6.3-10.7-7.2-16.8c-0.2-1.4-0.5-2.7-0.9-4c-1.3-5.1-2.6-10.2-4-15.4
		c-1.1-4.1-1.5-8.3-1.1-12.5c0.7-6-0.4-11.9-2-17.7c-1-3.5-1.7-7-2.2-10.6c-0.6-5.7-0.1-11.4,1.6-16.9c1.2-4,2.7-8,4-12
		c0.6-1.7,1.1-3.3,1.7-5c1.8-5.4,2.4-11.1,2-16.8c-0.3-3.4-0.3-6.9,0.1-10.3c0.4-3,1.1-6,2.2-8.8c1-2.5,2-4.9,3-7.3
		c1.3-3.1,2-6.4,2-9.7c0-2.6,0.4-5.1,1.3-7.5c1.9-5.6,3.6-11.2,5.1-16.9c0.8-3.2,2.3-6.3,4.2-9c1.1-1.6,2.2-3.2,3.3-4.8
		c2.3-3.1,4-6.6,4.9-10.4c1.8-8,5.6-15,10-21.7c3-4.6,6.3-9,8.9-13.8c0.7-1.3,1.6-2.4,2.7-3.5c2.4-2.7,5-5.3,7.4-8s4.7-5.3,6.8-8
		c2.1-2.6,3.8-5.5,4.9-8.6c1.1-2.8,2.6-5.3,4.7-7.4c2.7-3,5.7-5.7,9-8c2.7-2,5.4-3.9,8.2-5.7c4.5-2.9,8.8-6.2,12.8-9.8
		c2.8-2.6,5.9-4.8,9.3-6.7c4.1-2.5,8-5.4,11.5-8.6c4-3.6,8.1-7.1,12.3-10.5c2.9-2.3,6-4.4,9.3-6.2c8.5-5,17.4-9.3,26.6-13
		c2.5-1,5-1.7,7.6-2.1c3.4-0.5,6.6-1.8,9.5-3.7c1.6-1.1,3.3-2.1,4.9-3.2c2.4-1.6,5.3-2.3,8.1-1.9c3.2,0.4,6.5,0.1,9.6-1
		c1.9-0.5,3.8-1,5.6-1.6c5.6-1.8,11.5-2.6,17.3-2.6c2.6,0,5.3,0,7.9-0.2c1.9-0.1,3.7-0.3,5.5-0.7c2.2-0.6,4.2-1.7,5.9-3.1
		c2.2-1.7,4.9-2.6,7.6-2.6c1.3,0,2.6-0.2,3.8-0.1c3.3,0.1,6.6,0.4,10,0.5c3.8,0.2,7.7,0.6,11.4-0.4c2.2-0.6,4.3-1.3,6.4-2.1
		c2.5-0.9,4.9-2.1,7.3-3c3.5-1.3,7.4-1.3,10.9,0c0.7,0.3,1.5,0.5,2.2,0.8c4.7,2.1,9.6,3.2,14.6,4.2c9.3,1.9,18.6,3.8,27.7,6.4
		c6.1,1.6,11.9,4.1,17.2,7.3c2.8,1.8,5.7,3.4,8.6,5c1.3,0.7,2.6,1.4,3.9,2c1.6,0.9,3.5,0.8,5-0.3c1.4-1,3.1-1.4,4.7-1.1
		c1,0.2,1.9,0.5,2.8,0.9c1.4,0.7,2.7,1.6,4,2.5c4,3,8.2,5.8,12.5,8.3c8.3,5,16.2,10.6,23.7,16.9c1.3,1.1,2.7,2.3,4,3.5
		c1.2,1.2,2.8,1.9,4.4,2.1c1.1,0.1,2.1,0.4,3.2,0.6c1.9,0.2,3.6,1.2,4.7,2.7c1,1.3,2,2.6,2.9,4.1c2.6,4.2,5.8,8,9.4,11.3
		c2.7,2.5,5.5,5,8.2,7.6s5,4.9,7.5,7.4c1.8,1.8,3.6,3.6,5.5,5.3c3.1,2.7,5.6,6.1,7.4,9.8c1.8,3.8,4.4,7.2,7.6,9.9
		c3,2.6,5.5,5.7,7.3,9.1c2.9,5.2,6.4,10.1,10.3,14.6c3.1,3.6,5.6,7.6,7.4,11.9c3.4,8,6.2,16.3,8.5,24.7c1.3,4.7,1.9,9.6,1.8,14.5
		C1478.1,340.2,1478.1,340.7,1478.1,341.5z M1333.3,176.8c-0.4,0.3-0.8,0.5-1.1,0.7c-2.8,2.1-5.8,2-8.9,0.7
		c-1.3-0.6-2.5-1.2-3.6-1.9c-6.1-3.7-12.6-6.7-19.4-9.1c-11.5-4-23.3-7.3-35.3-9.9c-4.7-0.9-9.3-2.3-13.7-4.2
		c-0.8-0.4-1.6-0.7-2.5-0.9c-2.2-0.8-4.6-1-7-0.7c-1.9,0.3-3.8,0.8-5.6,1.5c-2.8,1-5.4,2.2-8.1,3.4c-3.8,1.5-8,2-12.1,1.3
		c-1.3-0.2-2.5-0.3-3.8-0.3c-5.5-0.1-11,0.4-16.3,1.5c-6.1,1-12.1,2.1-18.3,2.8c-8.1,0.9-16.1,2.3-23.9,4.4c-3.6,0.9-7.2,2-10.9,2
		c-3.4-0.1-6.8,1-9.6,3c-1.8,1.2-3.6,2.4-5.4,3.6c-2.1,1.4-4.5,2.4-7,2.8c-6.6,1-12.6,3.6-18.4,6.6c-4.3,2.2-8.5,4.5-12.7,6.8
		c-8.3,4.5-16,9.9-23,16.3c-6.3,5.6-13.1,10.7-20.3,15c-4.4,2.7-8.7,5.3-13,8c-3.5,2.3-7,4.7-10.2,7.4c-4.6,3.6-8.1,8.4-10,13.9
		c-2.5,7.2-6.8,13.4-11.6,19.2c-1.3,1.7-2.9,3.2-4.8,4.4c-2.5,1.6-4.6,3.7-6.2,6.1c-1.4,1.9-2.7,3.8-4.1,5.8
		c-4.5,6.3-8.2,13.1-11,20.3c-1.7,4.4-3.4,8.8-4.9,13.2c-1.3,3.9-3.4,7.5-6.2,10.5c-2.8,3-4.7,6.9-5.2,11c-0.6,3.5-1.6,6.9-3.2,10
		c-1.1,2.1-1.8,4.4-2.1,6.7c-0.4,2.6-0.8,5.2-1.1,7.9c-0.5,4.7-1.7,9.3-3.7,13.5c-0.7,1.4-1.3,2.9-1.9,4.3c-1.3,2.9-2,6-2.2,9.1
		c-0.1,3.2-0.2,6.5-0.3,9.7c-0.1,3.8,0.1,7.7-0.9,11.4c-0.8,2.9-1.7,5.8-2.7,8.7c-1.1,3.2-2.4,6.4-3.5,9.7c-2.5,7.1-2.7,14.8-0.5,22
		c0.7,2.4,1.4,4.9,2.2,7.3c1.7,5.2,2.4,10.7,1.8,16.2c-0.3,3.5-0.1,7.1,0.8,10.5c0.8,3.2,1.3,6.5,2,9.8c1,4.8,1.8,9.6,2.9,14.4
		c1,5,3.2,9.7,6.5,13.7c0.3,0.4,0.6,0.8,0.9,1.2c2.1,2.6,3.5,5.7,4.4,8.9c0.4,1.7,0.8,3.4,1.3,5.1c0.6,2.8,1.8,5.4,3.3,7.8
		c2,2.9,3.7,6,5,9.3c1.6,3.9,3.3,7.8,4.8,11.7c1.6,3.7,2.7,7.5,3.5,11.5c0.4,2.9,2.2,5.5,4.8,7c1.8,1.1,3.6,2,5.4,3
		c2.5,1.3,4.7,3.2,6.3,5.6c0.4,0.6,0.8,1.1,1.2,1.7c2.4,3.8,5.2,7.4,8.3,10.7c1,1.2,2,2.4,3,3.6c1.8,2.1,3.2,4.5,4.1,7.1
		c0.4,1.2,1.3,2.2,2.4,2.8c3.4,2,6.6,4.2,9.7,6.7c5.4,4.4,10.6,9.1,15.5,14c3.9,3.8,7.7,7.5,12.3,10.4c0.2,0.1,0.3,0.2,0.5,0.3
		c1.6,1,2.9,2.4,3.8,4c1.5,2.9,3.9,4.9,6.5,6.7c3.7,2.6,7.4,5.2,11,7.9c2.7,2,5.7,3.4,9,4.2c2.5,0.6,4.9,1.3,7.3,2.2
		c5.3,2,10.4,4.5,15.2,7.5c2.8,1.7,5.5,3.4,8.2,5.2c1.4,1,3.1,1.6,4.9,1.7c3.6,0.1,7,1.5,9.6,3.9c0.4,0.3,0.8,0.6,1.2,0.9
		c2.8,2.4,6.2,4.2,9.8,5.2c5.9,1.9,12,2.8,18.2,2.9c2.9,0,5.9,0,8.8,0c3,0,6.1,0.7,8.8,1.9c2.9,1.4,6.1,2.1,9.3,2.2
		c5.1,0.2,10.2,0.4,15.3,0.5c3,0,6,0.4,9,1c3.3,0.7,6.7,1.5,10,2.3c4.3,1.2,8.6,1.7,13.1,1.7c6-0.1,11.9-0.6,17.8-1.5
		c3.4-0.4,6.7-1.4,9.8-2.9c1.5-0.8,3-1.3,4.7-1.7c2.6-0.6,5.2-0.9,7.8-1.3c2.9-0.5,5.8-0.9,8.7-1.6c3.5-0.8,7-1.8,10.5-2.8
		c3.9-1.2,8.1-1.7,12.2-1.4c0.7,0.1,1.4,0,2.1,0.1c2,0.1,3.9-0.4,5.6-1.4c1.2-0.7,2.4-1.4,3.6-2c2.4-1.4,5.1-2.2,7.8-2.1
		c0.7,0,1.4-0.1,2,0c2.8,0.2,5.5-1.2,6.9-3.7c0.2-0.2,0.3-0.5,0.5-0.7c1.6-2.4,3.9-4.2,6.5-5.3c1.5-0.6,2.9-1.2,4.2-2
		c4.8-2.7,9.8-5,14.9-6.8c7.4-2.7,14.6-6.3,21.2-10.7c4.2-2.7,8.5-5.2,13-7.3c9.7-4.8,11.2-6,18.4-14.3c2.5-2.9,5.2-5.6,8.2-8
		c0.6-0.5,1.2-1,1.8-1.5c4.6-4.4,9.3-8.7,13.8-13.2c1.2-1.2,2.3-2.4,3.2-3.8c1.9-2.7,3.7-5.5,5.4-8.4c1.7-2.9,3.5-5.7,5.6-8.3
		c1.1-1.4,2.2-2.8,3.2-4.2c2.4-3,4.2-6.4,5.5-10c1.3-3.8,2.9-7.5,4.9-11c2.1-3.9,3.7-8,4.6-12.3c0.4-1.7,0.8-3.4,1.2-5.1
		c1.2-5.9,3.1-11.6,5.6-17c4.6-9.7,9.1-19.5,13.7-29.3c0.7-1.5,1.3-3,1.8-4.6c0.5-2.4,1.7-4.6,3.4-6.4c1.6-1.7,2.8-3.8,3.4-6.1
		c0.3-1,0.7-2,1-3.1c2.2-8.8,3.4-17.9,3.5-27c0-1.6-0.3-3.1-0.3-4.7c-0.1-2.4-1-4.6-2.7-6.4c-1.8-1.9-2.6-4.4-2.3-7
		c0.1-1,0.2-1.9,0.4-2.9c0.8-2.9,1.7-5.8,2.4-8.8c1.5-6.5,2.4-13.1,2.6-19.8c0.2-5.4-0.1-10.8-2.2-15.9c-1.1-3-1.4-6.2-0.7-9.2
		c0.3-1.5,0.5-2.9,0.8-4.3c0.7-3.2,0.1-6.5-1.5-9.4c-0.6-1-1.1-2.1-1.7-3.1c-1.6-2.7-2.8-5.6-3.7-8.6c-0.7-2.3-1.5-4.6-2.2-7
		c-1.1-3.8-3.2-7.2-5.9-10c-1.3-1.3-2.5-2.8-3.7-4.2c-1.5-1.7-2.3-3.9-2.3-6.2c0-1.7-0.1-3.3,0-5c0.1-2.4-0.1-4.9-0.7-7.3
		c-1.8-7.6-4.2-15.1-7.3-22.3c-2.8-6.4-6-12.5-10.8-17.7c-2.4-2.7-4.4-5.8-5.9-9.1c-2.1-4.3-5.1-8.2-8.7-11.3
		c-3.5-3-6.5-6.5-8.9-10.5c-2-3.3-4.6-6.1-7.6-8.5c-1.9-1.5-3.7-3.2-5.4-4.9c-3.5-3.5-7-7.2-10.4-10.8c-5.2-5.1-9.8-10.7-13.9-16.7
		c-2.9-4.5-3.6-4.8-9-5.7c-1.8-0.3-3.6-1-5.1-2.1c-1.2-0.8-2.3-1.8-3.4-2.8c-3.3-3.1-6.9-5.9-10.6-8.4c-9-6.4-18.1-12.7-27.7-18.2
		C1336.3,178.5,1334.8,177.6,1333.3,176.8z"/>
	<path class="st2" d="M1183.2,176.2c3.1-0.1,6.3-0.1,9.4-0.3c3.7-0.4,7.3-1.2,10.9-2.4c3.8-1.2,7.6-2.5,11.7-2.9
		c2.4-0.3,4.9-0.4,7.3-0.2c4.3,0.3,8.6,0.9,12.8,1.4c5.8,0.7,11.7,1.6,17.6,0.9c1.4-0.2,2.9-0.4,4.4-0.6c4.7-0.4,9.4,0.3,13.8,2
		c2.6,1,5.2,2.2,7.8,3.4c2.2,1,4.4,2.1,6.6,3.1c4.9,2.1,10,3.4,15.3,3.8c4.1,0.5,8.1,1.1,12.2,1.7c1,0.1,1.9,0.4,2.8,0.6
		c1.1,0.3,2.2,0.8,3,1.7c6,5.3,12.5,10.1,19.4,14.2c6.1,3.8,12.2,7.4,18.3,11.1c6.4,3.8,12.4,8.2,18.1,13c2.9,2.4,5.5,5.1,7.8,8
		l0.4,0.4c3.3,4,3.9,4.4,9.2,4.9c2.3,0.2,4.4,1.1,6.1,2.6c4,3.4,7.9,6.7,11.9,10c5.5,4.5,10.2,9.8,14.1,15.7c1.9,3,3.8,5.9,5.6,9
		c2.4,3.9,4.3,8.1,5.6,12.6c1.5,5.2,4.4,9.9,8.3,13.6c2.2,2.1,4.3,4.3,6.6,6.3c4,3.7,6.9,8.3,8.5,13.5c1.4,4.7,2.8,9.4,4.1,14.1
		c1.2,4.4,2.5,8.8,4.2,13.1c1.1,3.2,2.9,6.2,5.2,8.8c3.1,3.2,4,7.1,3.5,11.4c-0.2,1.9-0.5,3.7-0.7,5.5c-0.6,4.7-0.6,9.4,0,14.1
		c0.8,6.3,2.3,12.5,3.5,18.8c1.1,5.2,1.9,10.4,2.2,15.7c0.1,2,0.1,3.9,0.1,5.9c0,2.5-0.1,5.1-0.2,7.6c-0.1,4.6,0.2,9.2,0.9,13.8
		c0.4,3.5,0.7,7,0.8,10.5c0.2,4-0.8,8-2.9,11.5c-0.6,1.1-1.2,2.2-1.9,3.3c-5.5,8.3-9.2,17.5-12.2,26.9c-1.7,5.4-3.1,11-5.2,16.2
		c-4.8,12.6-8.8,25.6-12,38.7c-1.5,6.2-3.5,12.2-5.8,18.2c-2.3,6-5.4,11.6-9.3,16.6c-3.4,4.2-7.7,7.7-12.5,10l-5.8,2.8
		c-3.7,1.7-6.8,4.3-9.2,7.6c-1.2,1.6-2.4,3.1-3.5,4.7c-2.4,3.4-5.3,6.3-8.6,8.8c-2.1,1.6-4.2,3.2-6.3,4.8c-3.5,2.7-6.7,5.7-9.7,9
		c-1.5,1.7-3,3.4-4.6,5c-2.8,3-6.4,5.3-10.3,6.4c-0.8,0.2-1.6,0.7-2.3,1.3c-3.7,3.2-7.8,5.9-12.2,8c-4.1,2-8.3,4-12.5,5.9
		c-5.8,2.6-11.4,5.8-16.5,9.5c-3.1,2.3-6.7,3.7-10.6,4c-7.6,0.6-15.1,2.6-22,5.8c-5.8,2.7-11.9,4.9-18.2,6.3
		c-4.1,0.9-8.2,1.7-12.3,2.6c-3.3,0.8-6.7,1.6-10,2.5c-3.1,0.7-6.2,0.8-9.3,0.2c-7.8-1-15.6-1.2-23.4-0.6c-4.5,0.3-9,0.3-13.5,0.2
		c-3-0.1-6-0.8-8.8-1.9c-2-0.8-4-1.6-5.9-2.5c-5.7-2.7-11.7-4.5-17.9-5.4c-5.1-0.7-10-2.1-14.6-4.3c-1.8-1-3.9-1.4-6-1.2
		c-3.4,0.5-6.6-0.3-9.8-1.3c-2.2-0.7-4.4-1.5-6.6-2.3c-5.2-2-10.3-4.2-15.5-6.2c-4.8-2-9.5-4.2-13.4-7.7c-0.8-0.6-1.7-1-2.7-1
		c-9.8-1.1-19-5-26.8-11c-3.1-2.4-6-5.1-8.6-8c-2.4-2.6-5.1-4.9-8-6.9c-2.8-2-5.7-3.8-8.6-5.7c-3.9-2.6-7.8-5.3-11.7-7.9
		c-1.6-1.1-3.2-2.3-4.8-3.4c-1.3-1-2.9-1.7-4.5-2.1c-1.6-0.4-3.1-1.4-4-2.8c-0.5-0.7-0.9-1.3-1.4-1.9c-1.8-2.4-3.6-4.9-5.6-7.2
		c-2.5-2.8-4.3-6.1-5.3-9.7c-2.7-9.4-2.9-8.9-7.9-15.5c-3.6-4.8-6.7-9.9-9.3-15.2c-4.8-9.8-9.5-19.6-13.6-29.6
		c-1.2-3-2.6-5.9-4.2-8.7c-5.9-10.9-10.3-22.4-13.2-34.5c-1.4-5-2.4-10.1-3.2-15.2c-0.4-3.7-0.4-7.4,0-11.1c0.3-2.4,0.6-4.9,0.8-7.3
		c0.5-4.6,0.3-9.2-0.6-13.7c-0.6-3.3-0.7-6.6-0.2-10c0.3-2.5,0.6-5,0.9-7.6c0.5-4.8,1.1-9.5,1.7-14.3c0.6-5,1.3-10.1,2-15.1
		c0.7-5.4,1.4-10.9,2.2-16.3c0.7-4.5,1.6-9.1,2.5-13.5c1.3-5.3,3.3-10.5,5.9-15.3c1.2-2.4,2.4-4.7,3.6-7.1c2-3.9,3.6-8.1,4.7-12.3
		c1-3.7,2.4-7.3,4.1-10.8c2.5-5.5,4.6-11.2,6.5-17c0.8-2.5,1.8-5,2.9-7.4c1.5-3.4,4-6.4,7-8.6c1.4-1.1,2.8-2.1,4.2-3.2
		c2.8-2,5-4.8,6.4-7.9c0.9-1.9,1.8-3.7,2.5-5.6c1.9-4.7,4.9-8.8,8.8-11.9c3.1-2.5,6.3-5,9.4-7.5c5-3.8,9.4-8.4,12.9-13.6
		c1.7-2.4,3.4-4.8,5.1-7.2c3.4-5.1,7.9-9.3,13.1-12.4c3.6-2.1,6.9-4.5,10-7.2c3.6-3.1,7.8-5.6,12.4-7.1c3.5-1.2,7-2.6,10.5-3.8
		c4.6-1.5,8.8-3.9,12.5-7c3.2-2.6,6.9-4.5,10.9-5.5c2-0.5,4-1,6-1.5c5.6-1.4,11.1-3.2,16.5-5.3c1.8-0.7,3.7-1.2,5.6-1.8
		c1.9-0.6,3.8-0.9,5.8-0.8c2.4,0.1,4.7-0.4,6.8-1.5c1.2-0.6,2.5-1.2,3.7-1.8c4.1-2.3,8.8-3.4,13.5-3.2c1.8,0,3.5,0,5.3,0
		L1183.2,176.2z M1239.7,694.9c3.4,0.1,6.9-0.3,10.2-1.2c1.8-0.5,3.6-0.9,5.4-1.4c4.3-1.1,8.6-1.9,13-2.3c3.9-0.3,7.7-1.5,11.2-3.4
		c1.4-0.8,2.7-1.5,4.1-2.2s3-1.4,4.5-2.1c6.7-2.8,13.8-4.4,21.1-4.7c3.9-0.1,7.7-1.5,10.9-3.8c0.8-0.6,1.6-1.2,2.3-1.8
		c2.1-1.7,4.5-3.1,7-4.2c5.9-2.5,11.4-5.6,17-8.7c2.2-1.2,4.2-2.5,6.3-3.8c1.9-1.1,3.5-2.5,4.9-4.1c1.3-1.7,3.3-2.8,5.5-3.1
		c2.4-0.3,4.5-1.4,6.1-3.2c1.5-1.5,3-3.1,4.4-4.7c3-3.5,6.3-6.7,10-9.5c1.2-1,2.4-2,3.7-2.9c4.5-3.4,8.6-7.5,12-12
		c1.8-2.3,3.7-4.6,5.6-6.8c3-3.5,6.9-6.2,11.2-7.8c0.9-0.3,1.8-0.8,2.7-1.1c2.5-0.9,4.7-2.4,6.7-4.2c1.6-1.6,3.2-3.2,4.6-4.9
		c3.3-4.2,6-8.9,8-14c2.9-7,5.2-14.1,7-21.5c4.4-17.4,9.8-34.4,15.9-51.3c3.5-9.8,7.4-19.4,12.7-28.4c0.8-1.4,1.5-3,2.2-4.5
		c1.3-2.7,1.9-5.6,2-8.5c0.1-2.6,0-5.3-0.2-7.9c-0.6-6-0.9-12.1-0.8-18.2c0.1-1.5,0-2.9,0.1-4.4c0.2-7.4-0.6-14.9-2.1-22.2
		c-1.2-6.2-2.5-12.5-3.5-18.8c-0.9-4.6-1-9.4-0.3-14c0.3-1.7,0.7-3.5,1-5.2c0.7-2.6,0.1-5.4-1.5-7.5c-0.7-0.9-1.4-1.9-2.1-2.9
		c-2-2.6-3.5-5.4-4.6-8.5c-1.4-4.1-2.7-8.2-4-12.3c-1.7-5.5-3.2-11.1-5.3-16.5c-1.8-4.8-4.7-9.1-8.4-12.6c-2.4-2.2-4.6-4.5-6.9-6.8
		c-2.9-2.9-5.3-6.3-7-10.1c-0.8-1.8-1.7-3.5-2.4-5.3c-1.6-3.7-3.1-7.4-4.7-11.1c-2-4.6-4.5-8.9-7.6-12.9c-5.6-7-12-13.2-19.2-18.4
		c-2.8-2.2-6.2-3.4-9.7-3.6c-2.5-0.1-4.8-1.2-6.5-2.9c-1.9-1.9-3.9-3.9-5.7-5.9c-2.5-2.7-5.2-5.3-8.2-7.6c-5-3.9-10.3-7.5-15.8-10.7
		c-5.8-3.4-11.7-6.8-17.5-10.2c-3-1.7-5.7-3.8-8.3-6.1c-2-1.8-4.1-3.6-6.3-5.3c-2.5-2.1-5.5-3.5-8.6-4.2c-3.2-0.7-6.3-1.2-9.5-1.7
		c-3-0.5-6-0.9-9-1.5c-4.1-0.9-8.1-2.3-11.9-4.2c-3.4-1.6-6.7-3.1-10.2-4.6c-5.7-2.5-12-3.2-18.1-2c-4.1,0.7-8.2,0.8-12.3,0.3
		c-5.6-0.5-11.1-1.3-16.6-1.9c-5.3-0.6-10.6-0.6-15.7,0.9c-3.6,1-7.1,2.1-10.7,3.2c-4.7,1.5-9.6,1.9-14.5,1.1
		c-2.8-0.4-5.7-0.3-8.5,0.3c-3.3,0.8-6.6,1.9-9.7,3.3c-3.2,1.4-6.6,2.5-10,3.4c-11.4,2.5-22.5,5.8-33.7,8.9
		c-4.9,1.2-9.4,3.6-13.3,6.8c-2.2,1.9-4.6,3.3-7.3,4.3c-2.9,1.1-5.8,2.3-8.7,3.4c-3.7,1.4-7.3,2.8-10.9,4.2c-1.1,0.4-2.1,1.1-2.8,2
		c-1.2,1.5-2.8,2.8-4.5,3.8c-3.5,2.2-7,4.4-10.4,6.6c-0.8,0.5-1.6,1.1-2.4,1.6c-1.6,1-2.8,2.5-3.4,4.3c-1.1,3-3.1,5.5-5.8,7.2
		c-2.7,1.8-4.9,4.2-6.6,7c-2.5,4.1-5.8,7.7-9.8,10.4c-2.4,1.7-4.7,3.5-7.1,5.2c-4,3-7.2,7-9,11.7c-0.8,2-1.7,4-2.6,5.9
		c-1.5,3.2-3.7,6-6.6,8.1c-1.3,0.9-2.5,1.9-3.8,2.8c-4.8,3.3-8.4,8.1-10.1,13.7c-0.9,2.8-1.9,5.6-2.7,8.4c-1.1,4.2-2.9,8.1-5.3,11.7
		c-1.5,2.2-2.5,4.7-3.1,7.2c-0.6,2.8-1.2,5.5-1.8,8.3c-0.7,4-2.3,7.8-4.7,11c-1,1.2-1.8,2.6-2.4,4c-3.3,7.4-5.5,15.3-6.5,23.4
		c-0.3,3.4-0.8,6.8-1.3,10.2c-1.6,9.3-3.6,18.4-4.8,27.8c-0.8,6.6-1.8,13.2-2.8,19.8c-0.7,4.3-0.3,8.7,1,12.8
		c0.8,2.6,1.1,5.4,0.8,8.1c-0.2,2-0.5,3.9-0.8,5.8c-0.9,4.5-1.1,9.2-0.6,13.8c0.9,6.9,2.4,13.7,4.6,20.3c1.3,4.2,2.6,8.4,4,12.6
		c0.7,2.1,1.2,4.1,1.9,6.2c0.9,2.7,2.2,5.2,3.9,7.5c1.1,1.5,2.1,3.1,2.8,4.8c3.5,7.8,6.8,15.6,10.2,23.4c2.5,5.6,5.1,11.2,7.8,16.8
		c2.4,5.3,5.9,10,10.2,13.8c2.8,2.5,4.8,5.8,5.5,9.5c0.5,2.1,1.1,4.2,1.7,6.2c0.6,2.2,1.7,4.2,3.3,5.8c2.4,2.4,4.5,5.2,6.3,8.1
		c1,1.7,2.4,3.1,4.1,4.1c3.4,2,6.9,4.2,10.3,6.3c4.7,3,9.5,5.9,14.1,9c3.9,2.6,7.6,5.6,10.9,9c2.6,2.6,5.4,5.1,8.4,7.4
		c8.4,6.6,17.6,11.7,28.6,12.6c1,0.1,1.9,0.4,2.7,1c5,3.9,10.6,7.1,16.6,9.2c7.7,2.9,15.5,5.5,23.2,8.1c0.7,0.2,1.5,0.3,2.3,0.2
		c3.7-0.4,7.5,0.2,10.9,1.8c2.3,1,4.8,1.8,7.3,2.3c3,0.6,5.9,1.3,8.9,1.9c6.1,1.2,12.1,3.2,17.8,5.9c5.4,2.5,11.4,3.6,17.4,3.2
		c4.2-0.3,8.4-0.5,12.6-0.7c2.2-0.1,4.5-0.1,6.7,0C1230.6,694.2,1235.1,694.6,1239.7,694.9L1239.7,694.9z"/>
	<path class="st2" d="M1208.1,674.4c-7.4-0.2-14.9-0.2-22.3-0.5c-3.9-0.1-7.8-0.6-11.7-0.9c-3.1-0.4-6.3-0.2-9.3,0.6
		c-0.7,0.3-1.5,0.3-2.2,0.1c-2.6-0.9-5.2-1.7-7.8-2.6c-0.8-0.2-1.5-0.5-2.2-0.7c-2.5-0.7-4.7-2.1-6.5-3.9c-1.8-2-4.5-3-7.2-2.6
		c-3,0.3-6.1-0.2-8.8-1.5c-1-0.4-2-0.8-3-1.2c-5.1-2.4-10.3-4.4-15.6-6c-2.8-0.8-5.5-2.2-7.8-4c-2.8-2.2-6.2-3.5-9.7-3.8
		c-1.6-0.2-3.1-0.7-4.5-1.3c-4.6-2-8.9-4.6-12.8-7.7c-6.1-4.7-11.9-9.9-17.4-15.4c-5.4-5.4-10.9-10.7-16.3-16.1
		c-1.6-1.6-3.1-3.3-4.6-4.9c-1.9-2-3.4-4.3-4.5-6.8c-2.1-4.5-4.7-8.8-7.7-12.8c-1.6-2.2-3.2-4.5-4.7-6.7c-2-2.9-3.6-6-4.9-9.3
		c-0.6-1.7-1.3-3.3-1.9-4.9c-1.5-3.9-3.6-7.7-6.2-11c-0.7-0.9-1.4-1.9-2.1-2.8c-5.6-6.9-9.9-14.9-12.6-23.4
		c-1.1-3.3-2.1-6.7-3.1-10.1c-2.2-7.5-4.4-15-6.5-22.6c-1.4-4.2-2.1-8.6-2.2-13c0-1.7,0.1-3.3,0.5-5c0.8-3.5,0.5-7.1-0.8-10.4
		c-0.6-1.5-1.2-3.1-1.9-4.6c-1.9-4.2-2.5-8.9-1.7-13.5c0.3-2,0.4-4.1,0.5-6.1c0.3-6.2,0.3-12.4,1.1-18.5c0.5-3.8,1-7.6,1.5-11.4
		c0.2-1.7,0.5-3.5,0.7-5.2c0.5-3.4,1.7-6.7,3.6-9.5c0.7-0.9,0.8-2,0.5-3c-1.5-4.6-1.4-9.6,0.1-14.2c0.3-1.1,0.7-2.3,1.1-3.4
		c1.5-3.8,2.6-7.8,3.2-11.9c0.2-1.9,1-3.6,2.2-5.1c1.4-1.8,2.5-3.7,3.4-5.8c0.9-1.9,1.7-3.8,2.7-5.5c0.9-1.7,2-3.3,3.3-4.8
		c0.9-1,1.6-2.2,2.1-3.5c4.2-11,8.6-21.8,13.9-32.4c5.3-10.9,11.5-21.4,18.5-31.3c2.7-3.9,6.2-7.1,10.2-9.6c2.5-1.5,4.9-3.2,7.3-4.9
		c2-1.3,3.6-3.1,4.7-5.2c1-2.1,2.8-3.6,5-4.2c2-0.6,3.8-1.8,5.1-3.4c1.8-2,4-3.5,6.5-4.3c2.1-0.8,4.2-1.5,6.3-2.5
		c6.8-3.2,13.2-7.3,19.1-12c0.7-0.6,1.4-1.3,2-2.1c0.9-1.1,1.9-1.9,3.2-2.6c2.3-1.1,4.7-1.9,7.2-2.3c1.7-0.3,3.3-0.5,5-0.6
		c3.5-0.2,7-0.9,10.3-2.2c2-0.7,4-1.4,6-2.3c5.5-2.3,11.1-4.4,16.8-6.2c2.8-0.9,5.4-2.2,8.1-3.4c2-0.9,3.6-2.4,4.7-4.3
		c1.3-2.5,3.7-4.2,6.4-4.6c4.3-1,8.7-1.6,13.1-1.7c5.4-0.1,10.8-0.4,16.1-1.1c2.2-0.3,4.5-0.4,6.7-0.6c2.6-0.2,5.3,0.1,7.8,0.9
		c1.5,0.5,3,0.9,4.5,1.4c1.6,0.6,3.4,0.8,5.2,0.5c1.7-0.3,3.4-0.3,5,0.1c1.4,0.3,2.9,0.4,4.3,0.5c5.6,0.2,11.2,0.3,16.8,0.6
		c5.2,0.2,10.3,1.3,15.2,3.1c1.3,0.6,2.8,0.8,4.2,0.5c6.1-1.4,12.1-0.2,17.9,1.5c4.6,1.4,9.1,2.9,13.7,4.4c3.1,1.1,6.2,1.9,9.4,2.4
		c1.4,0.2,2.8,0.9,3.9,1.8c4.7,4,9.8,7.5,15.1,10.6c8.7,5.1,17.2,10.5,26.2,15.2c3.7,1.9,6.9,4.5,9.7,7.5c2.6,2.9,5.1,5.9,7.6,8.9
		c2.5,3,5.1,6.2,7.7,9.3c2.2,2.6,4.7,4.8,7.4,6.6c3.5,2.2,6.6,5,9.2,8.1c1.7,2,3.8,3.7,6.1,5.1c1.8,1.1,3.5,2.2,5.3,3.2
		c3.1,1.8,5.5,4.5,6.9,7.8c1.1,2.4,2.1,4.9,3,7.3c1.2,2.9,2.3,5.8,3.4,8.7c1.6,3.8,3.9,7.3,6.9,10.1c2.2,2.1,4.4,4.2,6.8,6.1
		c4.1,3.5,7.5,7.7,10.2,12.4c3.2,5.7,6.1,11.6,8.5,17.7c0.7,1.8,1.1,3.8,1.2,5.7c0.2,2.7,1.1,5.4,2.4,7.8c0.1,0.3,0.3,0.5,0.4,0.8
		c2.2,3.4,2.2,7,0.6,10.6c-0.4,1-0.8,2-1.2,3c-1.9,4.2-2.3,8.8-1.1,13.2c0.6,2.7,1.4,5.3,2.1,8c0.6,2.2,1,4.4,1.4,6.6
		c0.2,1.7,0.2,3.3,0,5c-1.1,7.5-1.2,15.1-0.5,22.6c0.8,8.1,2.3,16.1,4.5,23.9c0.9,3.3,0.9,6.8,0.1,10.1c-0.8,3.6-2,7.2-3.5,10.6
		c-0.9,2-1.8,3.9-2.8,5.9c-5.1,9.7-9.6,19.7-14,29.7c-3.7,8.5-8.1,16.8-13,24.7c-0.5,0.7-0.9,1.5-1.4,2.3c-4,6.3-6.7,13.3-8,20.7
		c-0.2,1.2-0.5,2.5-0.8,3.7c-2,8.8-6.5,16.3-12.4,23c-4.4,4.9-9.3,9.3-14.6,13.1c-6.7,4.9-13.2,10.2-19.2,15.9
		c-2.7,2.4-5.6,4.6-8.6,6.7c-3.3,2.3-6.7,4.4-10,6.7c-2.4,1.7-4.7,3.5-7,5.3c-2.4,1.8-4.5,4.1-6.2,6.6c-2.4,3.7-5.9,5.3-10.1,5.6
		c-7.3,0.5-14.3,2.3-21.3,3.8c-3.3,0.8-6.6,2-9.6,3.5c-1.3,0.6-2.7,1.2-4,1.9c-5.1,2.5-10.6,4.2-16.2,5c-6.2,1-12.4,1.7-18.6,2.4
		c-5.9,0.6-11.8,1.6-17.6,3c-5.9,1.4-12,2.1-18.1,1.9c-6.2,0-12.3-0.2-18.5-0.4L1208.1,674.4z M1162.7,670c3.9-2.2,7.9-1.9,12-0.7
		c2.3,0.6,4.6,0.9,7,0.8c2.9-0.1,5.9,0,8.8-0.3c5.1-0.4,10.2-0.4,15.3-0.1c9,0.4,18,0.6,27,0.2c3.6,0,7.2-0.8,10.6-2.1
		c5.3-2.1,10.9-3.2,16.6-3.2c1.5,0,2.9-0.1,4.4-0.2c5.9-0.7,11.9-1.3,17.8-2.1c4.3-0.5,8.5-1.7,12.4-3.5c2.1-1,4.3-2,6.4-3
		c4.2-2,8.7-3.5,13.4-4.2c4.3-0.6,8.5-1.6,12.5-3.1c0.6-0.2,1.4-0.2,2,0c2.9,0.7,6,0,8.3-1.8c1.5-1.1,2.9-2.3,4.1-3.8
		c3.8-4.3,8.4-8,13.5-10.8l8.9-5.1c4-2.3,7.7-5.1,11-8.3c2.3-2.3,4.6-4.5,6.9-6.8c3.5-3.5,7.3-6.8,11.4-9.7c4-2.8,7.8-6,11.3-9.4
		c6.4-5.9,10.7-13.7,12.4-22.2c0.4-1.9,0.9-3.8,1.3-5.7c1.4-5.9,3.6-11.6,6.6-16.9c3.3-6,6.7-12,10.1-17.9c3.2-5.5,6-11.2,8.6-17
		c2.2-5.1,4.6-10.2,6.8-15.3c1.9-4.3,4-8.5,5.7-12.9c2.2-5.1,3.7-10.5,4.5-16.1c0.2-1.1,0.1-2.1-0.4-3.1c-1.1-2.4-1.8-5-2.2-7.6
		c-1.1-7.4-2.3-14.7-3.3-22.1c-0.7-4-0.4-8.1,0.7-12c0.8-2.6,1.1-5.4,0.8-8.1c-0.3-4.7-1.2-9.3-2.5-13.9c-0.5-1.5-0.9-3-1.3-4.5
		c-1-3.3-0.9-6.9,0.3-10.1c0.4-1,0.7-2,1-3c0.4-1.2,0.8-2.4,1.2-3.6c1.2-3.3,0.9-6.9-0.8-9.9c-1.4-2.6-2.3-5.4-2.6-8.4
		c-0.3-2-0.7-4-1.4-6c-1.7-4.7-3.6-9.3-5.9-13.8c-2.6-5.5-6.4-10.4-11-14.3c-2.4-2.1-4.8-4.3-7.1-6.6c-3.6-3.5-6.4-7.7-8.2-12.4
		c-0.9-2.6-1.8-5.2-2.9-7.7s-2.3-5.2-3.6-7.7c-1-1.9-2.5-3.5-4.4-4.6c-1.7-1-3.3-2.1-5-3.1c-3-1.7-5.7-3.9-8-6.4
		c-2.7-3-5.7-5.7-9.1-7.9c-2.9-1.9-5.4-4.2-7.6-6.9c-2.9-3.6-5.8-7.1-8.7-10.7c-4.2-5.5-9.4-10-15.3-13.5c-4.9-2.9-9.9-5.5-14.9-8.3
		c-8-4.4-15.8-9.1-22.8-15c-3.8-3.3-8.4-5.5-13.3-6.3c-4.8-0.8-9.6-2.1-14.1-3.8c-1.8-0.7-3.7-1.2-5.6-1.7c-3.1-0.9-6.4-1.1-9.6-0.7
		c-1.7,0.2-3.4,1.1-5.1,1s-3.3-1.2-4.9-1.8c-4.4-1.4-8.9-2.2-13.5-2.4c-7-0.2-14.1-0.4-21.2-0.6c-4.2,0-8.4-0.7-12.4-2
		c-2.5-0.9-5.2-1.3-7.8-1.1c-3.5,0.2-7,0.4-10.5,0.8c-4.8,0.7-9.7,1-14.6,1c-2,0-3.9-0.1-5.9,0.1c-1.8,0.1-3.5,0.4-5.2,0.8
		c-2.2,0.5-4.2,1.8-5.6,3.6c-0.5,0.7-1.1,1.4-1.6,2.1c-1.1,1.6-2.7,2.9-4.6,3.6c-2,0.8-4,1.6-6,2.4c-5.5,2.1-11,4.1-16.5,6.1
		c-3,1.1-6,2.3-9,3.5c-2.6,1-5.3,1.6-8,1.9c-1.2,0.1-2.3,0.1-3.5,0.2c-5.4,0.2-10.1,1.8-13.9,5.9c-1.7,1.8-3.6,3.3-5.7,4.6
		c-3.2,2.1-6.4,4.1-9.8,6c-3.9,2.2-8,4.2-11.9,6.4s-7.6,4.4-11.3,6.8c-0.8,0.5-1.6,1.2-2.1,2c-2,3.2-4.6,5.9-7.8,7.9
		c-2.2,1.5-4.4,3-6.6,4.4c-3.8,2.5-7.1,5.6-9.8,9.2c-1.2,1.6-2.4,3.1-3.4,4.8c-5.7,9.2-10.9,18.8-15.4,28.7
		c-2.3,5.3-4.6,10.6-6.9,15.9c-2,4.5-4.4,8.8-7.2,12.8c-1.3,1.9-2.6,3.9-3.9,5.9c-1.2,1.7-2,3.6-2.3,5.7c-0.4,2-1.3,3.9-2.7,5.5
		c-0.5,0.6-1,1.2-1.5,1.8c-0.9,1.1-1.5,2.5-1.6,4c-0.2,3-0.8,6-1.9,8.9c-0.5,1.4-1,2.8-1.3,4.2c-0.6,2.3-1,4.6-1.3,6.9
		c-0.4,3.4,0.2,6.8,1.6,9.9c-0.5,1.7-1.2,3.2-2.2,4.6c-0.7,1.1-1.4,2.1-2.1,3.2c-1.2,1.8-1.6,4.1-1.1,6.2c0.4,1.8,0.3,3.7-0.3,5.5
		c-0.3,1.1-0.6,2.3-0.7,3.4c-1,6.1-1.6,12.2-1.7,18.4c0,4.1-0.3,8.2-0.9,12.2c-0.4,2.8-0.1,5.7,0.9,8.4c0.6,1.6,1.4,3.2,2,4.9
		s1.2,3.1,1.8,4.7c1.2,2.9,1.2,6.2,0.1,9.2c-0.5,1.5-0.7,3.1-0.6,4.6c0.1,3.8,0.6,7.6,1.6,11.3c2.5,9.7,5.2,19.3,7.8,28.9
		c2.7,10.5,7.5,20.3,14,28.9c1,1.4,2.2,2.7,3.5,3.9c2,1.7,3.5,4,4.4,6.5c0.4,1.1,0.8,2.2,1.2,3.3c1.2,4,3,7.9,5.4,11.4
		c1,1.5,2,3.1,3.1,4.7c3.8,5.5,7.5,11,10.8,16.8c2.2,3.8,5,7.3,8.2,10.4l11.5,11.3c4.8,4.9,10,9.4,15.4,13.6
		c5.7,4.3,11.6,8.4,17.4,12.5c1.6,1.1,3.4,1.9,5.4,2.3c3.6,0.7,6.9,2.1,10,4.1c0.8,0.5,1.5,0.9,2.3,1.3c3.4,2.1,7.2,3.6,11.1,4.5
		c4.3,0.9,8.5,2.5,12.3,4.7c2.7,1.8,6.1,2.4,9.3,1.7c2.1-0.5,4.4,0.2,6,1.6c0.6,0.5,1.2,1,1.8,1.6c1.3,1.3,3,2.3,4.8,2.8
		c1,0.3,2.1,0.6,3.1,0.8C1158,667.4,1160.5,668.1,1162.7,670L1162.7,670z"/>
	<path class="st2" d="M998.1,455.9c0.2-5.6,0.3-11.2,0.5-16.7c0.1-4.6-0.3-9.2-1.2-13.7c-0.6-3.6-0.9-7.2-0.9-10.8
		c0.1-2.9,0.6-5.8,1.7-8.6c2.2-5.6,4.4-11.3,6.7-16.9c1.9-4.5,3.5-9.1,4.8-13.9c2.1-8,4.3-16.1,6.5-24.1c0.6-2.1,1.3-4.1,2.2-6.1
		c0.7-1.7,1.9-3.2,3.5-4.3c1-0.7,1.9-1.4,2.8-2.1c1.9-1.3,3.3-3.1,4-5.3c0.6-1.8,1-3.6,1.4-5.4c0.3-1.4,0.6-2.9,1-4.3
		c0.7-2.9,1.9-5.6,3.6-8c0.1-0.2,0.2-0.3,0.3-0.5c4.4-5.5,7.9-11.6,11.5-17.7c1.9-3.2,4-6.3,6.2-9.3c7.4-9.8,17.3-17.5,28.7-22.3
		c2.6-1.1,5-2.6,7-4.6c6-5.8,12.5-10.9,19.6-15.3c0.6-0.3,1.1-0.7,1.7-1.2c3.4-2.7,7.3-4.7,11.4-5.9c3.5-1.1,7.1-2.3,10.6-3.5
		c5.8-2.1,11.3-4.8,15.8-9.2c0.7-0.6,1.6-1.1,2.5-1.4c5-1.8,10.1-3.1,15.3-4c5-0.9,10-1.9,15-2.7c3.4-0.6,6.8-0.9,10.2-1.4
		c1.9-0.3,3.9-0.5,5.8-0.8c2.7-0.5,5.3-1.5,7.7-2.8c1.8-1,3.6-1.9,5.4-2.9c2.3-1.3,5-1.9,7.6-1.8c3.1,0.1,6.2,0.3,9.4,0.4
		c1.2,0.1,2.3,0.2,3.5,0.2c8.4-0.1,16.5,1.4,24.7,3.2c10.5,2.4,20.6,6.3,30,11.5c2,1.1,3.9,2.3,5.8,3.4c3.4,2.2,7.4,3.3,11.4,3.1
		c1.8-0.1,3.5,0,5.3-0.1c2.3-0.1,4.5,0.4,6.5,1.4c2.2,1,4.4,2.1,6.5,3.4c4.8,3.1,9.5,6.2,14.2,9.4c1.9,1.4,3.6,3,5.3,4.6
		c2,1.9,3.9,3.9,5.8,5.8c2.6,2.5,5.6,4.7,8.8,6.3c1.3,0.6,2.6,1.3,3.9,2c5,2.3,9.4,5.7,13.1,9.8c3.5,4,6.8,8.1,10.1,12.3
		c1.9,2.5,4,4.8,6.2,7.1c1.3,1.3,2.5,2.8,3.5,4.3c1.3,2,2.4,4,3.5,6.1c1.2,2.3,2.3,4.6,3.3,6.9c3.4,7.8,8,15.1,13.6,21.5
		c2.7,3.1,5.2,6.4,7.5,9.8c2.5,3.4,4.3,7.3,5.1,11.4c0.5,2.5,1.6,4.9,3.2,6.8c1.3,1.6,2.1,3.5,2.5,5.6c1.5,7.9,3.3,15.7,4.1,23.7
		c0.4,4.6,1.7,9,2.7,13.5c0.8,3.5,1.6,7.1,2.3,10.6c0.3,1.1,0.4,2.3,0.3,3.5c-0.3,4.6,0.4,9.2,1,13.8c0.8,6.8,1.6,13.6,1.4,20.5
		c-0.1,3-0.6,6-1,9c-0.3,1.9-1,3.8-1.9,5.5c-0.4,0.8-0.8,1.6-1.2,2.4c-1.6,2.7-2.4,5.8-2.3,9c0.1,3.1-0.1,6.3,0,9.4
		c0.2,6.9-1.2,13.7-4.1,20c-0.2,0.4-0.3,0.7-0.5,1.1c-3.7,7.4-6.9,14.9-9.6,22.7c-1.3,3.9-3.7,7.4-7,10c-2.9,2.3-5.2,5.1-7,8.3
		c-1.9,3.3-3.6,6.7-5.3,10.1c-1.6,3.2-3.1,6.6-4.6,9.8c-2.9,6-6.8,11.5-11.7,16.1c-1.8,1.8-3.7,3.5-5.5,5.3
		c-2.3,2.2-4.6,4.3-6.7,6.6c-3.6,3.9-7.7,7.3-12.3,10c-2.7,1.6-5.4,3.2-8.2,4.7c-5.7,3.1-11.2,6.5-16.4,10.3
		c-2.9,2.1-5.9,4.2-8.8,6.3c-3.9,2.8-8,5.2-12.4,7.3c-3.9,1.8-7.7,4-11.2,6.3c-1.6,1-3.1,2-4.7,3c-2.7,1.7-5.8,2.9-8.9,3.6
		c-1.4,0.3-2.7,0.6-4,1.1c-8.8,2.9-17.8,5.2-27,6.7c-4.9,0.8-9.8,1.6-14.8,2.2c-7.5,0.9-15.1,1-22.6,0.3c-3.4-0.4-6.8-0.6-10.2-0.9
		c-3.5-0.4-7.1,0-10.4,1.3c-0.4,0.2-0.7,0.3-1.1,0.4c-2.6,1-5.5,0.9-8-0.2c-2.8-1.2-5.7-2-8.7-2.4c-2.2-0.3-4.4-1-6.4-2.2
		c-7.2-4.2-15-6.5-22.8-9.1c-5.4-1.8-10.7-3.7-16-5.8c-6.1-2.4-12-5.4-17.4-9c-0.9-0.7-1.9-1-3-1.1c-2.9,0-5.6-0.8-8.1-2.2
		c-0.8-0.4-1.6-0.8-2.3-1.3c-4-2.7-8.2-5-12.6-6.9c-2.5-1.1-4.8-2.7-6.6-4.8c-1.9-2.2-4.3-4-7-5.2c-2.3-1.1-4.3-2.7-5.8-4.8
		c-1.1-1.4-2-2.9-3-4.3c-4.6-6.8-10-13.1-16-18.8c-2.8-2.6-5.9-4.9-9.2-6.8c-8.6-4.8-15.2-11.6-20.5-19.8
		c-3.3-5.1-6.1-10.5-8.4-16.1c-0.8-1.9-1.3-3.9-1.5-6c-0.2-3.1-1.5-5.9-3.8-8c-0.1-0.1-0.1-0.2-0.2-0.2c-3.4-2.8-5.1-6.6-6-10.8
		c-0.5-2.8-1.2-5.5-1.8-8.3c-0.8-4.4-2.3-8.7-4.3-12.8c-2.4-4.6-3.5-9.8-3.2-15c0.1-4.7,0.5-9.4,0.7-14.1c0.1-2,0.2-4.1,0.3-6.2
		L998.1,455.9z M1001.9,455c-0.1,3.3-0.3,7.4-0.4,11.5c-0.1,3-0.2,6.1-0.1,9.1c0,4.7,0.9,9.4,2.7,13.7c0.5,1.1,0.8,2.2,1.3,3.3
		c1.5,3.8,2.8,7.7,3.6,11.8c0.6,2.7,1.3,5.3,2,8c0.6,3,2.3,5.7,4.8,7.5c2.7,2,4.4,5.2,4.4,8.6c0.2,2.9,1,5.8,2.2,8.5
		c1.7,3.8,3.7,7.6,5.8,11.2c3.2,5.6,7.5,10.6,12.5,14.7c3.8,3.1,7.8,6,11.7,9c2.8,2,5.3,4.3,7.6,6.9c4,4.7,8,9.4,11.7,14.3
		c2.7,3.5,5.5,6.6,9.7,8.2c2.8,1.1,5.1,3,6.8,5.4c0.3,0.5,0.8,0.9,1.1,1.4c1.4,2,3.3,3.6,5.6,4.7c4.9,2.5,9.6,5.3,14.1,8.4
		c0.5,0.3,1,0.6,1.5,0.9c1.5,0.9,3.2,1.4,5,1.5c2.7,0.2,5.2,1,7.5,2.4c1.3,0.7,2.5,1.5,3.7,2.4c4.5,3.3,9.5,5.9,14.8,7.6
		c6.6,2.2,13.2,4.3,19.8,6.4c4.4,1.4,8.8,2.6,12.8,5c3.6,2.2,7.8,3.3,12,3.2c1.8,0,3.5,0.4,5.2,1c0.9,0.3,1.9,0.6,2.8,1
		c1.6,0.6,3.2,0.8,4.9,0.6c1.5-0.2,3.1-0.6,4.5-1.2c2-0.8,4.2-1.2,6.3-1.1c7,0.6,14.1,1.1,21.1,1.8c9.3,0.9,18.6,0.7,27.7-1.7
		c3.2-0.8,6.5-1.6,9.7-2.2c2.3-0.5,4.6-0.7,7-1c3.5-0.5,7-1.1,10-3c2.1-1.3,4.5-2,6.9-2.2c1.9-0.1,3.7-0.7,5.3-1.5
		c2.8-1.5,5.7-3.1,8.5-4.7c3.3-1.9,6.5-4,9.9-5.7c3.7-1.9,7.2-4,10.5-6.5c2.3-1.8,4.7-3.5,7-5.3c4.5-3.6,9.4-6.8,14.5-9.4
		c2.5-1.3,5-2.6,7.5-4c2.8-1.6,5.5-3.4,8.2-5.2c1.7-1.1,3.2-2.6,4.3-4.4c1.6-2.5,3.5-4.7,5.7-6.7c1.6-1.5,3.1-3,4.7-4.4
		c7.1-6.2,12.7-14,16.3-22.7c0.6-1.4,1.2-2.7,1.8-4c1.1-2.3,2.2-4.6,3.3-6.9c2.7-5.3,6.1-10,11-13.6c3.1-2.2,5.1-5.5,5.7-9.3
		c0.4-2.4,1.3-4.7,2.6-6.8c0.8-1.3,1.6-2.7,2.5-4c4-5.6,6.6-12,8.8-18.5c1.6-4.5,2.3-9.3,2.1-14.1c-0.2-2.5-0.1-5.1-0.2-7.6
		c-0.1-3.9,0.7-7.8,2.4-11.4c0.6-1.3,1.2-2.7,1.8-4c1.6-3.6,2.4-7.5,2.4-11.4c-0.1-6.1-0.6-12.1-1.5-18.1c-0.8-4.5-1.3-9.1-1.6-13.7
		c-0.1-4.3-0.9-8.6-2.2-12.7c-0.7-2.1-1.4-4.3-2.1-6.4c-1.2-3.6-2.2-7.3-2.8-11.1c-0.7-4.8-1.4-9.5-2.2-14.2
		c-0.7-4.4-1.6-8.7-3.8-12.6c-2.9-5.2-5.3-10.7-7.4-16.3c-1.5-3.8-3.5-7.4-6.1-10.7c-1-1.3-2-2.7-3-4c-3.5-4.5-6.5-9.3-9-14.5
		c-4.8-10.2-11.1-19.6-17.7-28.7c-3.8-5.4-8.2-10.3-13.2-14.6c-4.4-3.9-9.5-7-15-9c-1.8-0.6-3.3-1.6-4.6-3c-2.8-3-5.8-5.9-8.7-8.8
		c-2.2-2.1-4.6-4-7.3-5.4c-1.1-0.7-2.3-1.2-3.5-1.5c-3.3-0.7-6.4-2-9.1-4c-1.7-1.1-3.4-2.2-5.2-3.4c-2.8-1.8-6.1-2.7-9.5-2.7l-5-0.1
		c-3.7,0-7.3-1.1-10.4-2.9c-5.9-3.3-11.9-6.4-17.8-9.6c-2.2-1.1-4.4-2.2-6.6-3.2c-5-2.3-10.2-4.1-15.5-5.2
		c-5.1-0.9-10.3-1.4-15.5-1.3c-5.7,0-11.4,0.4-17,0.3c-3.1-0.1-6.2,0.8-8.9,2.5c-0.8,0.5-1.5,0.9-2.3,1.3c-2.2,1.3-4.5,2.3-7,2.9
		c-4.8,1.1-9.6,1.8-14.5,2.2c-4.1,0.4-8.2,0.8-12.3,1.3c-1.7,0.2-3.3,0.7-4.8,1.4c-2.5,1.3-5.4,2-8.2,1.9c-4-0.1-8,1.3-11,4
		c-0.4,0.4-0.9,0.7-1.4,1.1c-1.7,1.4-3.7,2.6-5.7,3.6c-2,0.9-3.9,1.8-6,2.5c-4.2,1.6-8.4,3.1-12.7,4.7c-6.6,2.4-12.8,5.9-18.4,10.2
		c-3.9,3-7.6,6.2-11,9.8c-3.2,3.6-7.4,6.2-12,7.6c-2.1,0.7-4.2,1.7-6,3c-8.3,5.6-15.4,12.9-20.8,21.3c-1.2,1.9-2.5,3.8-3.6,5.8
		c-3.1,5.7-6.6,11.1-10.6,16.2c-0.3,0.4-0.6,0.8-0.8,1.2c-1.8,2.5-3,5.3-3.6,8.3c-0.3,1.4-0.7,2.9-1,4.3c-0.8,4.4-2.6,8.1-6.4,10.8
		c-2.4,1.7-4.2,4.2-5,7.1c-1,3.1-2,6.2-2.8,9.3c-2.3,9-4.7,18-7.6,26.8c-2.2,6.8-5,13.4-7.8,20c-2.5,5.8-3.3,12.2-2.5,18.4
		c0.7,5.8,1,11.7,1,17.6C1001.8,444.7,1001.9,449.4,1001.9,455L1001.9,455z"/>
	<path class="st2" d="M1390.8,335.5c3.7,6.9,7.4,13.7,11.1,20.5c1.7,3.2,3.4,6.4,5.1,9.6c0.6,0.9,0.9,1.9,1,3
		c0.4,5.1,1.6,10.1,3.5,14.8c0.9,2.5,1.8,5,2.8,7.4c1.4,3.3,2.4,6.8,3.1,10.4c0.8,4.3,1.9,8.6,3.5,12.7c2.1,5.5,2.6,11.5,1.6,17.4
		c-0.6,4-1.1,8-1.6,11.9c-0.3,2.3-0.3,4.7-0.4,7c-0.1,3.8-0.5,7.6-1.2,11.4c-0.2,2.1-1.1,4-2.5,5.5c-3,3-4,6.9-4.5,10.9
		c-0.4,2.9-0.4,5.9-0.7,8.8c-0.2,2.5-0.4,5.1-0.7,7.6c-0.4,3-1.3,5.9-2.7,8.7c-2.6,5.2-4.5,10.7-5.6,16.3c-1.1,5.1-3.2,9.9-6.2,14.2
		c-1.9,2.7-3.9,5.4-5.9,8.1c-0.5,0.6-1,1.2-1.4,1.9c-2.6,3.7-5.7,7-9.2,9.8c-4.1,3.2-7.3,7.3-10.7,11.3c-2.6,3-5.2,6.1-7.9,9.1
		c-3.9,4.3-8.3,8.1-13.3,11c-5.4,3.3-10.5,7.1-15.3,11.4c-3.7,3.2-7.6,6.2-11.5,9.2c-1.7,1.3-3.5,2.5-5.3,3.7
		c-4.5,2.9-9.4,4.9-14.6,5.9c-6.7,1.2-13,3.6-19.3,6c-7.6,2.9-15.1,5.8-22.9,8.1c-4.9,1.5-9.9,2.2-15,2.2c-6.2-0.1-12.3-0.1-18.5,0
		c-3.1,0.1-6.2,0.5-9.4,0.8c-4.4,0.4-8.8,1.1-13.1,1.3c-5,0.4-10-0.5-14.7-2.4l-7-3c-4.1-1.9-8.6-2.8-13.1-2.6c-1,0.1-2,0-2.9,0
		c-4.1,0.1-8.2-1.2-11.6-3.5c-2.1-1.4-4.2-2.8-6.4-4.2c-2-1.3-4.2-2.2-6.5-2.6c-0.6-0.1-1.2-0.2-1.8-0.2c-2.3,0-4.5-0.4-6.6-1.2
		c-8.2-2.5-15.9-6.2-22.9-11.1c-3.2-2.2-6.1-5-8.3-8.2c-1-1.5-2.2-3-3.3-4.5c-0.9-1.1-1.9-2.2-2.9-3.3c-1.7-1.8-3.9-3-6.4-3.4
		c-2.7-0.3-5.1-1.6-6.8-3.6c-0.6-0.6-1.2-1.3-1.8-1.9c-2.2-2.5-4.7-4.7-7.5-6.6c-3.3-2.1-6.1-5-8.2-8.3c-0.3-0.4-0.6-0.8-0.8-1.2
		c-1.8-2.7-4.4-4.8-7.4-5.9c-5-2-5.1-2.1-7.1-7.1c-1.3-3.2-2.9-6.2-4.7-9.1c-1-1.7-2-3.4-2.8-5.2c-3.1-6.2-6.1-12.5-9.2-18.7
		c-2.3-4.4-4.2-9-5.9-13.8c-0.6-2-1.1-4-1.7-5.9c-0.7-2.5-0.8-5.1-0.2-7.6c0.4-2.1,0.2-4.3-0.5-6.3c-0.3-0.8-0.6-1.7-1-2.5
		c-1.4-3-2.1-6.3-2.2-9.7c-0.4-7.2-0.3-14.5,0.3-21.7c0.2-3.3,0.3-6.7,0.3-10c0-2.9-0.1-5.9-0.2-8.8c-0.1-2.6,0.5-5.1,1.6-7.4
		c0.3-0.6,0.5-1.2,0.8-1.9c1.2-2.6,1.5-5.5,0.9-8.3c-0.3-1.7-0.8-3.4-1.2-5.1c-0.9-3.3-0.8-6.8,0.2-10.1c2.4-7.1,4.7-14.3,7.1-21.5
		c1.6-4.7,3.6-9.3,6-13.7c1.2-2.3,2.7-4.3,4.5-6.1c1.2-1.2,2.3-2.4,3.4-3.7c1.6-1.8,2.3-4.2,2-6.5c-0.1-0.9-0.2-1.8-0.3-2.6
		c-0.3-2.2,0.3-4.4,1.7-6.1c2-2.3,3.3-5.1,3.9-8.1c0.4-2,1.5-3.9,3.1-5.2c0.9-0.8,1.8-1.6,2.7-2.3c2.7-2.1,5.1-4.6,7.2-7.3
		c3.1-4,6.2-8.1,9.3-12.1c3.6-4.7,7.7-8.9,12.4-12.5c2.8-2.2,5.6-4.7,8.2-7.1c4.7-4.2,9.6-8,14.8-11.6c3.8-2.5,7.8-4.5,12-6.2
		c3.9-1.7,7.9-3.4,11.8-5.2c3.2-1.4,6.2-3.3,9-5.5c0.9-0.7,1.9-1.4,2.8-2.1c2.3-1.7,5-2.8,7.8-3.2c3.5-0.4,6.9-1.7,9.8-3.8
		c3.7-2.4,7.6-4.5,11.5-6.5c3.7-2,7.9-3,12.1-3c3.5-0.1,7,0.2,10.6,0.3c3.9,0.1,7.8,0.2,11.8,0.2c2.3-0.1,4.5-0.6,6.5-1.5
		c1.9-0.7,3.8-1.5,5.7-2.3c6.4-2.7,13.5-2.9,20.1-0.6c2.6,0.9,5.2,1.8,7.7,2.8c3.3,1.2,6.8,2.1,10.3,2.6c3.6,0.5,7.1,1.6,10.3,3.3
		c4.4,2.2,8.7,4.4,13.1,6.6c5.4,2.8,11.2,4.6,17.3,5.5c5.7,0.7,11,3.3,15,7.4c1.3,1.3,2.7,2.6,4,3.9c1.1,1,2.2,2,3.2,3
		c2.9,2.8,6.7,4.6,10.7,5.1c3.4,0.4,6.6,1.9,9.2,4.2c1.2,1,2.3,2.1,3.4,3.2c1.8,1.7,3.5,3.5,5.2,5.1c1.7,1.7,3.6,3,5.8,3.9
		c3.1,1.2,5.8,3.3,7.9,5.9c1.6,1.9,3.1,3.8,4.5,5.8c3.6,5.2,7.5,10,11.9,14.6c1.6,1.6,3.1,3.3,4.4,5.1c1.2,1.4,2.2,3,3.2,4.6
		C1391.1,327.9,1391.5,329.1,1390.8,335.5z M1054.4,550c4.3,1,7.5,3.6,10.2,6.8c1.2,1.4,2.3,2.9,3.6,4.3c1.3,1.6,2.7,3.1,4.3,4.4
		c3.9,3,7.5,6.2,11.2,9.5c1.8,1.7,4,2.9,6.4,3.5c4.2,0.9,7.2,3.3,9.8,6.6c1.5,1.9,3,3.9,4.4,5.9c1.7,2.4,3.8,4.5,6.1,6.3
		c2.5,1.8,5,3.5,7.5,5.2c2.8,1.8,5.9,3.2,9.1,4c3.1,0.8,6.2,1.7,9.4,2.3c6.1,1.1,11.8,3.5,16.9,7c1.3,0.9,2.7,1.7,4,2.5
		c1.7,1.1,3.5,1.7,5.5,1.9c2.4,0.1,4.9,0.3,7.3,0.2c4-0.2,8,0.6,11.7,2.4c1.1,0.6,2.3,1.1,3.5,1.6c1.3,0.6,2.7,1.3,4,1.8
		c2.5,1.1,5.2,1.8,7.9,2c6,0.2,12,0,17.9-0.8c5-0.7,10.1-1,15.2-1c3.7,0.1,7.4,0.2,11.2,0.2s7.4-0.2,11.2-0.5c4-0.4,7.7-2,11.4-3.5
		c3.9-1.6,7.9-3,12-4c3.3-0.7,6.4-1.8,9.4-3.3c4.1-2.1,8.5-3.5,13.1-4.2c7.1-1.1,13.8-3.8,19.7-7.9c3.3-2.3,6.6-4.6,9.7-7.1
		c6.4-5.2,12.7-10.5,19.4-15.2c8.1-5.6,15.1-12.5,21-20.3c3.4-4.6,7.3-8.7,11.6-12.5c5.2-4.6,9.6-10,13.2-16
		c2.6-4.1,4.4-8.6,5.4-13.3c1-4.8,2.5-9.5,4.5-13.9c1.4-3.2,2.6-6.5,3.9-9.8c0.7-1.7,1-3.6,1-5.5c0.1-3.6,0.2-7.2,0.5-10.9
		c0.4-4.3,1.2-8.6,4.1-12c2.3-2.9,3.5-6.4,3.5-10.1c0.2-3.5,0.3-7,0.5-10.6c0.2-2.6,0.5-5.3,0.8-7.9c0.3-2.3,0.9-4.6,1.3-6.9
		c0.9-4.1,0.9-8.4,0-12.5c-0.6-2.6-1.2-5.2-2-7.7c-2-6.2-4.2-12.4-6.3-18.6c-2.4-7.1-4.8-14.3-5.7-21.8c-0.2-0.9-0.5-1.9-1-2.7
		c-1-1.9-2.1-3.8-3-5.7c-2.3-5.4-5.2-10.6-8.6-15.3c-1.4-2.1-2.7-4.3-3.9-6.5c-1-1.8-1.5-3.9-1.5-5.9c0-0.8-0.1-1.6,0-2.4
		c0-2.9-0.8-5.7-2.3-8.1c-1-1.6-2.1-3.1-3.3-4.5c-1.4-1.6-2.8-3-4.3-4.4c-4.1-3.7-7.7-7.9-10.6-12.6c-3-5.1-7.4-9.2-12.6-12
		c-3-1.6-5.8-3.8-8.1-6.3c-1.2-1.3-2.5-2.5-3.7-3.7c-3.4-3.4-7.3-5.9-12.1-6.7c-0.3,0-0.6-0.1-0.9-0.2c-2.5-0.5-4.8-1.7-6.6-3.5
		c-3.4-3.1-6.9-6.1-10.3-9.2c-2.9-2.7-6.5-4.4-10.4-5c-2.6-0.4-5.2-0.9-7.8-1.4c-4.4-1-8.6-2.6-12.6-4.7c-4-2-8.1-4-12.1-5.9
		c-3.8-1.8-7.9-3.1-12-3.9c-4.4-0.8-8.8-2-13-3.4c-1.6-0.6-3.2-1.1-4.8-1.5c-2.5-0.8-5.1-1.3-7.8-1.5c-3.9-0.1-7.8,0.7-11.5,2.1
		c-2.5,0.9-4.9,1.9-7.4,2.8c-3.2,1.2-6.6,1.8-10.1,1.6c-3.7-0.2-7.4-0.5-11.1-0.9c-5.8-0.7-11.6,0.2-16.9,2.6
		c-1.5,0.7-3,1.4-4.5,2.1c-2.2,1.1-4.4,2.2-6.6,3.3c-3.7,2-7.8,3.3-11.9,4c-2.9,0.4-5.7,1.7-7.8,3.8c-3.6,3.2-7.7,5.8-12.1,7.6
		c-3.6,1.6-7.2,3.1-10.8,4.6c-4.5,1.9-8.7,4.4-12.5,7.6c-1.7,1.5-3.6,2.8-5.5,4c-2.6,1.7-5,3.7-7,6.1c-1.4,1.7-2.9,3.2-4.5,4.6
		c-8.7,7.2-15.8,15.8-22.7,24.6c-2.6,3.3-5,6.5-8.5,8.8c-2.4,1.5-4,3.9-4.4,6.6c-0.4,2.6-1.6,5.1-3.5,7c-1.7,1.7-2.4,4.1-2,6.5
		c0.1,0.8,0.2,1.6,0.4,2.3c0.6,2.3,0,4.8-1.7,6.5c-1,1.2-2.2,2.3-3.3,3.3c-1.7,1.5-3,3.3-4.1,5.3c-3.5,6.5-6.4,13.2-8.8,20.2
		c-1.7,5.2-3.4,10.4-5.1,15.6c-1.1,3.3-1.2,6.8-0.5,10.1c0.3,1.6,0.6,3.3,1,4.9c0.9,3.5,0.6,7.3-0.9,10.6c-1.7,4-2.5,8.3-2.2,12.6
		c0.1,1.2,0.1,2.4,0.1,3.5c0,4,0,8-0.2,12c-0.4,5.8-0.4,11.6,0.1,17.3c0.3,4.3,1.2,8.5,2.8,12.5c1.2,2.7,1.6,5.7,1,8.6
		c-0.7,3.3-0.3,6.7,1.1,9.8c0.5,1.3,1.1,2.5,1.7,3.8c4.7,9.9,9.4,19.8,14.2,29.7C1048.4,537.8,1051.3,543.8,1054.4,550z"/>
	<path class="st2" d="M1198.4,256.2c3.2-0.2,6.4-0.5,9.7-0.6c3.1-0.2,6.3-0.2,9.4-0.1c2.1,0.2,4.1,0.7,6,1.4
		c2.3,0.8,4.6,1.8,6.8,2.7c4.2,1.7,8.6,2.8,13.1,3c5.2,0.3,10.3,0.9,15.5,1.2c2.2,0.2,4.3,0.3,6.5,0.3c4.9,0,9.8,1,14.3,2.8
		c5,1.9,10,4.1,14.7,6.6c8.4,4.4,16.9,8.6,25.6,12.5c2.8,1.2,5.4,2.7,8.1,4.1c7.5,4,14.1,9.7,19.2,16.6c2.7,3.7,5.4,7.4,8.2,11.1
		c3,4,6.2,7.8,9.8,11.3c4.3,4.1,8.4,8.5,12.1,13.2c5.1,6.1,8.7,13.4,10.6,21.1c1.1,4.6,2.9,8.9,5.2,13c1.5,2.8,3.1,5.7,4.7,8.5
		c1.2,2.2,2.2,4.6,2.9,7.1c0.7,2.3,0.8,4.7,0.1,7c-1.1,3.9-1.3,8-0.5,11.9c0.6,4.1,1.2,8.1,1.6,12.2c0.2,1.9,0.3,3.9,0.2,5.9
		c-0.3,6.8-0.6,13.5-1,20.2c-0.4,7.5-1.5,15-3.4,22.3c-1,3.5-2.3,6.9-3.8,10.1c-1,2.1-2.1,4.2-3.1,6.3c-2.3,4.6-3.9,9.4-4.9,14.4
		c-2,9.9-6.1,19.3-12,27.5c-2.2,3.2-4.6,6.3-7.1,9.4c-1.9,2.3-3.5,4.7-5,7.2c-0.9,1.6-1.9,3.2-2.9,4.8c-1.8,3-4.6,5.4-7.8,6.8
		c-1.4,0.6-2.9,1.3-4.3,1.9c-4.7,1.9-9,4.6-12.7,8c-1.7,1.5-3.4,2.9-5.2,4.4c-3,2.5-6.4,4.5-10.1,5.8c-1.8,0.7-3.7,1.3-5.5,2
		c-4.3,1.6-8.1,4.5-10.8,8.3c-0.6,0.8-1.1,1.6-1.7,2.4c-2.8,3.7-5.5,7.4-8.4,10.9c-6.3,7.7-15.3,12.6-25.2,13.5
		c-5,0.6-10.1,1.1-15.2,1.7c-3.3,0.4-6.6,0.8-9.9,1.4c-4.1,0.7-8.2,0.5-12.3-0.3c-2.6-0.6-5.2-1-7.8-1.1c-1-0.1-1.9-0.2-2.9-0.5
		c-5.2-1.2-10.5-1.5-15.8-0.9c-4.9,0.5-9.8,0.6-14.7,0.2c-3.9-0.5-7.7-1.1-11.6-2c-17.3-3.9-33.9-10.2-49.4-18.8
		c-6-3.3-12.1-6.5-18-9.8c-5.4-2.9-10.5-6.4-15.3-10.4c-2.5-2.2-4.8-4.6-6.9-7.2c-1.7-2-3.1-4.3-4.1-6.8c-1.3-3.4-3.1-6.6-5.3-9.5
		c-3.4-4.8-7-9.4-10.5-14.2c-2.7-3.7-5.5-7.4-8.1-11.2c-2.9-4.2-5.3-8.7-7.2-13.4c-1.5-3.6-3.1-7.2-4.7-10.8
		c-0.8-1.8-1.5-3.6-2.2-5.4c-1.8-4.6-2.7-9.4-2.8-14.3c-0.2-4.4-0.3-8.8-0.5-13.2c-0.2-4.3-0.9-8.6-2.2-12.7
		c-0.8-2.7-1.4-5.5-2.2-8.2c-0.7-2.9-0.9-5.8-0.7-8.8c0.3-5.5,1-10.9,2.2-16.3c1.5-7.9,2.9-15.8,4.6-23.6c1.4-6.4,3-12.8,4.6-19.1
		c0.3-1.3,0.7-2.6,1.3-3.9c3.6-8.5,7-17.3,12.4-24.9c3.2-4.6,5.8-9.6,7.6-14.8c0.8-2.1,1.7-4.2,2.6-6.2c1.3-3,3.3-5.6,5.7-7.8
		c1.2-1.1,2.5-2.2,3.8-3.3c3.7-3,7-6.5,9.8-10.5c1.2-1.7,2.4-3.3,3.7-4.9c1.9-2.6,4.5-4.7,7.5-5.9c3.2-1.3,6-3.4,8.1-6.1
		c1.3-1.6,2.9-3,4.7-4c3.3-2,6.5-3.9,9.8-5.8c3.5-2,7-3.9,10.5-5.9c3.3-1.9,6.4-4.1,9.3-6.7c3-2.7,6.8-4.4,10.8-5
		c2.6-0.4,5.3-0.6,7.9-0.6c5.8,0.1,11.5-1.3,16.7-4c1.4-0.8,2.8-1.3,4.2-2c3-1.5,6.3-2.1,9.7-1.9l4.1,0.2L1198.4,256.2z
		 M1215.5,259.4l-14.8,0.8c-2.6,0.1-5.3,0.3-7.9,0.4c-3.2,0.1-6.4,1-9.2,2.6c-1.7,0.9-3.3,1.8-4.9,2.6c-2.4,1.2-5,1.9-7.6,2
		c-3.7,0.2-7.4,0.3-11.2,0.6c-1.8,0.1-3.5,0.3-5.2,0.7c-2.6,0.6-5,1.8-6.9,3.7c-1.7,1.6-3.6,3-5.4,4.5c-2.5,1.9-5,3.7-7.5,5.6
		c-1.9,1.6-4.3,2.8-6.8,3.2c-2.1,0.4-4.1,1.4-5.6,3c-0.6,0.6-1.1,1.1-1.7,1.6c-2.2,2.3-4.7,4.2-7.5,5.6c-2.7,1.4-5.3,2.9-8,4.3
		c-4.9,2.6-9.1,6.2-12.3,10.7c-1.3,1.8-2.7,3.6-4.1,5.4c-1.5,2-3.3,3.6-5.4,4.9c-2.3,1.4-4.2,3.3-5.6,5.5c-1.2,1.8-2.2,3.7-3.1,5.6
		c-1.2,2.6-2.3,5.4-3.5,8.1c-1.6,3.9-3.5,7.6-5.6,11.3c-4.3,7.6-8.5,15.2-12.7,22.8c-0.6,1-1,2.1-1.1,3.3
		c-0.9,5.1-1.8,10.2-2.8,15.3c-1.5,7.8-3,15.6-4.6,23.3c-1.2,6-2.6,12-3.2,18.2c-0.9,7.9,0,15.9,2.6,23.5c1,2.9,1.5,5.9,1.5,8.9
		c0,2,0.1,3.9,0.1,5.9c0,3.6,0.2,7.3,0.7,10.9c0.9,6.2,2.4,12.3,5.9,17.7c1.8,2.8,3.2,5.8,4.2,9c1.3,4.5,3.4,8.8,6.1,12.6
		c3.1,4.4,6.3,8.8,9.5,13c4,5.2,8.1,10.3,11.8,15.8c1.5,2.1,2.7,4.3,3.6,6.7c1.2,3.1,3,6,5.5,8.3c2.5,2.4,5,4.7,7.7,6.8
		c7.1,5.5,14.9,10.2,23,14.1c10.4,5.1,21,9.6,31.2,15c3.1,1.5,6.3,2.7,9.7,3.3c6,1.3,12,2.7,18.1,3.9c5.9,1.3,11.9,1.6,17.8,1
		c3.2-0.3,6.5-0.4,9.7-0.3c1.9,0,3.7,0.2,5.6,0.4c2.7,0.3,5.5,0.6,8.2,0.9c1.9,0.1,3.9,0.4,5.8,0.8c3.4,1,7,1.3,10.5,0.9
		c2-0.2,4.1-0.5,6.1-0.8c3.5-0.5,7-1,10.5-1.4c4-0.5,8-0.8,12-1.2c6.5-0.7,12.6-3.4,17.5-7.7c2.8-2.4,5.4-5.1,7.7-8
		c2.7-3.4,5.2-6.9,7.6-10.4c2.5-3.7,6-6.5,10.2-8.1c2.4-0.9,4.7-1.9,7.1-2.8c3.3-1.3,6.4-3.1,9-5.5c1.2-1.1,2.5-2.2,3.7-3.3
		c3.2-2.9,6.8-5.3,10.8-7.1c2-0.9,4.1-1.9,6.1-2.8c5.3-2,9.5-6.2,11.6-11.5c1.1-2.4,2.5-4.7,4.1-6.7c3-4,6.1-7.9,9-12
		c3.8-5.2,6.7-11.1,8.5-17.3c2.3-8.8,5.7-17.3,9.9-25.4c2.7-5.3,4.6-11,5.6-17c1.2-6.7,1.9-13.6,1.9-20.5
		c0.2-10.8-0.6-21.6-2.3-32.2c-0.8-4.7-1.1-9.3,0.7-13.9c0-0.1,0.1-0.2,0.1-0.3c0.5-2,0.5-4.1-0.2-6.1c-0.9-2.4-1.8-4.8-2.9-7.1
		c-1.5-3.1-3.2-6.1-4.8-9.1c-2.2-4-3.8-8.2-4.9-12.5c-0.7-3.1-1.8-6.2-3.2-9.1c-2.3-4.9-5.4-9.4-9.1-13.3c-2.9-3-5.9-6-9-8.9
		c-3.4-3.2-6.4-6.6-9.2-10.3c-2.3-3.1-4.5-6.2-6.7-9.3c-4.9-6.9-11.3-12.6-18.6-16.8c-4-2.2-8.1-4.3-12.3-6.3
		c-7.1-3.3-14.1-6.9-20.9-10.8c-2.3-1.3-4.6-2.6-7-3.8c-5-2.5-10.2-4.5-15.7-5.7c-1.5-0.4-3.1-0.4-4.7-0.1c-3.2,0.6-6.4,0.6-9.6,0
		c-3.9-0.7-7.9-1.2-11.9-1.5c-5.2-0.2-10.3-1.4-15-3.8c-1.7-0.9-3.4-1.5-5.1-2.3C1222.9,260,1219.2,259.2,1215.5,259.4L1215.5,259.4
		z"/>
	<path class="st2" d="M1058.1,457.8c0-5.7,0.4-11.4,1.2-17c0.5-3,0.3-6.1-0.6-9c-1.5-5.4-1.6-11.1-0.3-16.6c1-4.7,1.9-9.4,2.8-14.1
		c0.2-1.1,0.5-2.3,0.8-3.4c1.7-5.9,3.4-11.9,5.1-17.8c0.6-2,1.2-3.9,1.9-5.9c1.7-4.8,4.3-9.2,7.8-13c3.4-3.6,5.9-8.1,7-13
		c0.4-1.8,1-3.6,1.6-5.3c0.7-1.8,1.5-3.6,2.5-5.3c1.1-2,2.8-3.6,4.9-4.5c1.6-0.7,2.9-1.7,4-3c1.8-2.1,3.6-4.1,5.2-6.4
		c4.9-6.9,11.2-12.7,18.5-17c6.1-3.7,12.3-7.2,18.5-10.8c2.6-1.6,5.5-2.5,8.6-2.7c1.8-0.1,3.5-0.8,4.9-1.8c3.8-2.4,7.8-4.5,11.9-6.4
		c1.6-0.8,3.1-1.7,4.6-2.6c1.3-0.7,2.5-1.5,3.8-2.3c3.7-2.2,8-3.4,12.3-3.4c1.5,0,2.9-0.1,4.4,0c6.2,0.1,12.3-0.6,18.3-2
		c2-0.4,4-0.9,6-1.4c4.9-1.2,10-1.1,14.8,0.2c3,0.8,6.1,1.5,9.1,2.2c3.1,0.8,6.4,1.1,9.6,0.9c3.4-0.2,6.9,0.3,10.1,1.6
		c3.9,1.5,7.9,2.9,11.7,4.7c5.6,2.6,11.3,4.9,17.2,6.7c7.8,2.2,14.8,6.4,20.5,12.1c3.3,3.3,6.6,6.7,9.9,10c2,2.1,4,4.3,6.1,6.4
		c2.3,2.3,5,4.1,8.1,5.3c1.6,0.6,3.1,1.3,4.6,2c2.6,1.2,4.9,3,6.6,5.3c1.3,1.7,2.6,3.5,3.7,5.3c2.2,3.6,4.9,6.9,8,9.8
		c5.2,4.8,9.2,10.6,13.3,16.4c0.6,0.8,1,1.7,1.5,2.5c0.9,1.4,1.2,3.1,1,4.7c-0.6,4.2-0.2,8.6,1.3,12.6c0.8,2.2,1.7,4.4,2.4,6.6
		s1.5,4.2,2.1,6.4c0.9,2.8,1.1,5.8,0.8,8.7c-0.6,4.6-0.1,9.2,1.2,13.7c1.3,4.4,2.6,8.8,3.9,13.2c2.1,6.8,2.9,14,2.4,21.2
		c-0.6,10.4-2.7,20.6-6.1,30.4c-0.9,2.6-2,5.1-3.5,7.4c-2.8,4.6-5.3,9.4-7.2,14.4c-3.6,8.7-7.9,17-12.9,25
		c-4,6.7-8.2,13.4-12.2,20.1c-1.5,2.6-3.7,4.6-6.5,5.7c-2.2,0.9-4.3,1.8-6.6,2.6c-4.7,1.7-9,4.4-12.4,8.1c-1.6,1.6-3.2,3.2-4.8,4.8
		c-2.3,2.4-5.2,4.3-8.3,5.4c-5.5,2.1-10.8,4.5-16,7.3c-5.6,3-11.5,5.5-17.5,7.5c-4.9,1.6-10.2,2.2-15.3,1.8
		c-5.9-0.5-11.8-0.2-17.5,0.8c-5.5,1.1-11,1.8-16.6,2.1c-3,0.2-6.1-0.1-9-0.8c-1.7-0.4-3.5-0.6-5.3-0.5c-6.2-0.2-12.3-0.3-18.5-0.5
		c-3.3-0.1-6.6-0.6-9.8-1.5c-8.3-2.3-16.5-4.9-24.8-7.3c-2.4-0.7-4.8-1.8-6.9-3.2c-4.2-2.7-8.8-4.7-13.8-5.7
		c-1.4-0.3-2.8-0.8-4.2-1.2c-2.7-0.7-5-2.4-6.6-4.6c-0.5-0.6-1-1.3-1.4-1.9c-1.8-2.7-4-5.1-6.6-7.1c-4.4-3.5-8.4-7.3-12-11.6
		c-1.1-1.3-2.2-2.5-3.4-3.7c-2.1-2.3-4.5-4.4-7.2-6c-5.3-3.1-8.8-7.6-11.6-12.9c-1.9-3.9-3.6-7.8-5-11.9c-1.2-3.3-2.4-6.6-3.6-9.9
		c-0.4-1.2-0.8-2.4-1.1-3.6c-0.5-2.5-1.5-4.9-2.8-7.1c-1-1.7-1.9-3.4-3-5.1c-2.9-4.6-4.5-9.8-4.8-15.2
		C1058.6,468.6,1058.4,463.2,1058.1,457.8z M1063.1,453.4h-0.3c0,2.8,0,5.7,0,8.5c-0.2,5.6,0.2,11.2,1.2,16.7
		c0.2,1.2,0.6,2.3,1.3,3.2c2.3,3.3,4.1,6.9,5.5,10.7c1.6,4.3,3.1,8.7,4.5,13c1.5,5,3.3,9.8,5.4,14.6c2.9,6.6,7.4,12.3,13.1,16.7
		c2.3,1.8,4.6,3.7,6.7,5.8c5,4.8,9.9,9.8,14.8,14.7c3.2,3.2,6.2,6.5,9.2,9.9c2.1,2.3,5.1,3.8,8.2,4c1.6,0.2,3.1,0.4,4.7,0.7
		c3.2,0.5,6.2,1.8,8.9,3.6c2.9,2,6.2,3.5,9.6,4.3c4.7,1.2,9.3,2.6,13.8,4.2c1.8,0.7,3.7,1.2,5.6,1.8c8.4,2.3,17,4,25.8,3.2
		c2.1-0.2,4.1-0.2,6.2-0.1c1.5,0.1,2.9,0.2,4.4,0.5c1.6,0.3,3.2,0.8,4.8,1.2c3.9,1,7.8,0.2,11.7-0.2c5.2-0.6,10.4-1.5,15.7-2.3
		c4.2-0.6,8.4-0.6,12.6-0.1c3,0.4,6.1,0.3,9.1-0.2c4.1-0.8,8.1-2.2,11.9-4c4.2-2,8.4-4.3,12.6-6.4c3.3-1.8,6.6-3.3,10.1-4.7
		c5.4-1.9,10.2-5,14.1-9.2c0.2-0.2,0.4-0.4,0.6-0.6c3.4-3.5,7.5-6.3,12-8.3c2.2-1,4.4-2.1,6.7-3.1c1.3-0.5,2.3-1.4,3-2.6
		c2.1-3.4,4.2-6.8,6.5-10.2s4.8-6.7,7.1-10.1c3.4-4.8,6.3-9.9,8.6-15.4c3.1-7.5,6.7-14.8,10.7-21.9c3-5.4,5.3-11.2,6.7-17.2
		c1.5-5.7,2.5-11.5,3.1-17.3c0.9-9,0.7-17.8-2.3-26.4c-1.1-3.1-2-6.4-2.8-9.6c-1.4-4.8-1.8-9.9-1.2-14.8c0.8-5.1,0-10.3-2.1-14.9
		c-0.9-2.2-1.8-4.3-2.7-6.5c-2.2-4.8-3.2-10.1-2.8-15.4c0.1-0.9-0.2-1.8-0.7-2.5c-1.7-2.6-3.3-5.3-5-8c-1-1.6-2-3.2-3-4.7
		c-1.7-2.8-4.1-5.1-6.9-6.6c-2.1-1.1-3.8-2.7-5.1-4.7c-1.4-2-2.8-4-4.2-6c-2.4-3.8-5.9-6.7-10-8.4c-3.1-1.3-5.9-3.1-8.3-5.4
		c-2.9-2.6-5.7-5.4-8.4-8.2c-2.2-2.2-4.4-4.5-6.5-6.8c-5.8-6.3-13.2-10.9-21.5-13.2c-6.6-1.9-13-4.4-19.1-7.5
		c-1.3-0.7-2.7-1.2-4-1.8c-5.9-2.8-12.3-4.2-18.7-4.3c-3.2,0-6.5-0.1-9.7-0.5c-3.5-0.3-7-1-10.5-1.4c-2.8-0.4-5.6-0.6-8.5-0.6
		c-5.7,0.1-11.3,0.7-17,0.9c-5.1,0.2-10.2,0.6-15.2,1.2c-3.8,0.4-7.5,1.7-10.7,3.8c-4.5,3-9.3,5.4-14.3,7.4
		c-5.8,2.4-11.6,4.7-17.4,7.1c-2.9,1.2-5.7,2.6-8.5,4c-10.8,5.6-20.4,12.8-27.7,22.8c-2.9,4.1-6.5,7.6-10.7,10.4
		c-2.4,1.6-4.2,3.9-4.9,6.7c-0.3,1.1-0.6,2.3-0.9,3.4c-0.6,2.2-1.1,4.4-1.8,6.5c-0.7,2.7-2.1,5.1-4.2,7c-3.3,3-5.8,6.6-7.6,10.7
		c-1.3,2.6-2.3,5.2-3,8c-0.6,2.9-1.2,5.7-1.7,8.6c-0.7,4.2-1.4,8.3-3.2,12.2c-0.9,2-1.4,4.1-1.4,6.3c-0.2,3.8-0.9,7.6-2,11.3
		c-1.4,4.3-1.6,8.9-0.6,13.3c0.5,2.5,0.8,5,0.9,7.6C1063.2,442.8,1063.1,448.1,1063.1,453.4L1063.1,453.4z"/>
	<path class="st2" d="M1077,442.6c0.3-6.8,0.4-13.5,0.8-20.3c0.5-8.2,2-16.4,4.6-24.2c1.2-3.5,2.7-6.9,4.4-10.2
		c1.7-3.4,3.5-6.8,5.2-10.2c1.7-3.3,2.8-6.9,3.3-10.6c0.5-3.7,1.9-7.2,4.1-10.2c3.8-5.3,7.5-10.5,11.2-15.8c1.8-2.6,3.9-4.9,6.3-6.9
		c1.6-1.4,3.1-3,4.4-4.7c1.3-1.8,2.7-3.6,4.1-5.4c1.8-2.4,4.1-4.3,6.8-5.5c3.5-1.5,6.8-3.6,9.7-6.1c3-2.5,6.6-4.3,10.4-5.2
		c4.1-1.1,8.2-2,12.2-3c1-0.3,2.1-0.5,3.1-0.8c2.1-0.6,4-1.7,5.4-3.4c0.6-0.7,1.3-1.4,2-2.1c1.6-1.5,3.6-2.4,5.8-2.4
		c2.9,0,5.9,0.2,8.8,0.8c4.2,0.5,8.4,0.6,12.6,0.1c4.2-0.4,8.3-1.2,12.6-1.4c4.8-0.2,9.6-0.2,14.4,0.1c4.5,0.3,9,0.9,13.4,1.5
		c9.8,1.4,19.3,4.2,28.2,8.5c5.1,2.4,9.8,5.5,14,9.2c0.9,0.8,1.9,1.3,3.1,1.5c6.7,1,12.3,4.2,17.6,8.4c5.1,4.3,9.8,9,14,14.2
		c4.4,5.1,8.4,10.4,12,16c2.8,4.5,6.1,8.6,9.8,12.5c1.5,1.6,2.9,3.2,4.2,4.9c2.5,3.1,3.7,7,3.3,11c-0.1,1.5,0.2,2.9,1,4.2
		c1.1,1.8,2.1,3.8,3.3,5.5c3.1,4.7,5,10,5.5,15.6c0.6,6.4,1.6,12.8,3.1,19.1c1.1,5.1,1.3,10.3,0.5,15.5c-0.6,5.5-1.6,11-2.9,16.5
		c-1.4,5.4-3.4,10.6-6.8,15.2c-2.8,3.8-3.7,8.4-4.4,12.9c-0.6,3.9-1,7.8-1.7,11.6c-0.7,4.1-2.4,7.9-5.1,11.1c-1.7,2.1-3.5,4-5.2,6
		c-3.2,3.9-6.6,7.5-10.4,10.7c-3,2.5-5.3,5.6-6.8,9.1c-2.2,4.9-5.8,8.9-10.4,11.6c-2.5,1.5-5,3.1-7.6,4.5
		c-6.2,3.3-12.3,6.9-18.2,10.7c-8.3,5.2-17.2,9.3-26.6,12.2c-3.2,1.1-6.5,1.6-9.8,1.6c-5.2,0-10.4,0-15.6,0c-3,0-6.1,0.2-9.1,0.4
		c-4.9,0.3-9.8,0.5-14.7,0.4c-4.5-0.1-9-0.4-13.5-0.9c-4.4-0.5-8.7-1.3-12.9-2.6c-1.1-0.3-2.2-0.7-3.3-1.2
		c-4.1-1.9-8.4-3.3-12.8-4.3c-4.4-1.1-8.9-2.3-13.3-3.5c-6.4-1.9-12.3-5.4-16.9-10.2c-2-2.1-4.1-4.2-5.9-6.5
		c-5.1-6.2-10.9-11.9-17.2-16.8c-3.2-2.6-6.3-5.3-9.3-8.1c-3.9-3.5-7.3-7.4-10.2-11.7c-3.7-5.3-6.1-11.5-6.9-17.9
		c-0.7-4.9-1.4-9.7-2.2-14.5c-0.5-3.2-1.6-6.3-3.2-9.1c-1.5-2.5-2.3-5.5-2.2-8.4c0.1-2.8,0.1-5.7,0.1-8.5c0-3.4,0-6.9,0-10.3
		L1077,442.6z M1178.2,300c-3.9,4.3-8.9,6.4-14.2,7.9c-0.6,0.2-1.1,0.4-1.7,0.5l-8.8,2.3c-4.5,1-8.7,3.2-12.2,6.2
		c-1.8,1.7-3.9,2.9-6.2,3.8c-3.6,1.3-6.6,4-8.4,7.4c-1.8,3.5-4.6,6.4-7.9,8.5c-1.9,1.2-3.6,2.8-4.9,4.6c-3.8,5.7-7.7,11.4-11.4,17.1
		c-2.1,3.2-3.4,6.9-3.7,10.7c-0.3,3.3-1.5,6.5-3.4,9.3c-1.1,1.6-2,3.4-2.7,5.2c-1.5,3.7-3,7.5-4.3,11.2c-3.5,10.2-5.9,20.7-7,31.5
		c-0.6,4.3-0.8,8.6-0.5,12.9c0.3,3.4,0.3,6.8,0.4,10.3c0,2.4-0.1,4.7-0.2,7c-0.2,4.1,0.3,8,2.6,11.5c1.5,2.6,2.5,5.5,2.9,8.6
		c0.9,4.8,1.6,9.7,2.4,14.5c0.8,5.8,2.9,11.4,6.1,16.3c5.7,8.5,12.9,15.8,21.2,21.7c3.5,2.4,6.7,5.2,9.5,8.3
		c1.9,2.1,3.7,4.3,5.6,6.4c2.5,2.8,5,5.5,7.6,8.2c3.4,3.4,7.5,6,12.1,7.5c4.1,1.4,8.2,2.7,12.2,4.1c12.4,4.2,25,7.8,38.1,9.1
		c5.2,0.6,10.4,0.8,15.6,0.6c2.9-0.1,5.9-0.2,8.8-0.3c6.5-0.1,12.9,0,19.4-0.5c5.8-0.4,11.6-1.8,17-4c5.6-2.5,11.1-5.4,16.3-8.8
		c7.6-4.8,15.5-9.1,23.6-13.1c1.9-1,3.8-2,5.6-3.2c2.2-1.4,4.1-3.4,5.3-5.8c0.5-0.9,1-1.7,1.3-2.6c1.7-3.7,4.1-6.9,7.2-9.5
		c1-0.8,1.9-1.7,2.9-2.5c5-4.2,9.2-9.1,13.4-14c3.3-3.8,5.3-8.6,5.7-13.6c0.3-3.2,0.7-6.4,1.1-9.6c0.6-4.9,1.9-9.6,5.4-13.4
		c1.8-2.1,3.1-4.5,3.9-7.2c0.5-1.5,0.9-3,1.3-4.5c1.6-6.9,2.6-13.9,3.1-20.9c0.4-4.6,0-9.2-1.1-13.7c-1.2-4.8-1.9-9.8-2-14.8
		c-0.1-2.2-0.3-4.3-0.7-6.4c-0.4-2.6-1.6-5.1-3.3-7.1c-2-2.4-3.3-5.4-3.6-8.5c-0.2-1.6-0.5-3.3-0.7-5c-0.4-3.9-1.9-7.7-4.5-10.7
		c-1.2-1.3-2.2-2.7-3.5-4c-4.7-5.1-9.2-10.5-13.3-16.1c-3.8-5.1-7.7-10.2-11.7-15.1c-4.3-5.5-9.4-10.3-15.1-14.3
		c-2.8-1.9-6-3.3-9.4-4c-1.3-0.3-2.7-0.5-4-0.7c-1.2-0.1-2.3-0.6-3.2-1.4c-1.5-1.2-3-2.5-4.7-3.6c-14.1-9.8-30-14.7-46.9-16.1
		c-6.9-0.6-13.9-0.8-20.8,0.5c-4.4,0.7-8.9,1.2-13.4,1.4c-4.3,0.4-8.6,0.4-12.9,0C1181.9,300.1,1180.1,300.1,1178.2,300z"/>
	<path class="st2" d="M1233.6,558.1c-6.3-0.5-12.5-1.3-18.7-2.1c-4.8-0.6-9.5-1.2-14.3-1.4c-3.7-0.2-7.4-0.1-11.2,0.3
		c-4.8,0.6-9.6-0.1-14.1-1.9c-2.6-1.1-5.2-2.2-7.8-3.3c-2.9-1.3-5.9-2.2-8.9-2.8c-3.9-0.6-7.5-2.5-10.3-5.3c-1.4-1.4-2.7-2.8-4-4.3
		c-4.7-5.5-9.4-11.1-14.1-16.5c-3-3.5-5.7-7.2-8.2-11.1c-2-3.1-4-6.3-6-9.4c-1.7-2.7-3.7-5.1-5.9-7.3c-2.2-2.1-3.7-4.8-4.3-7.9
		c-0.8-3.6-1.9-7.2-3.2-10.7c-2.3-6.7-3.9-13.5-4.9-20.5c-0.6-4.1-1.3-8.1-2-12.2c-0.9-5.9-0.3-12,1.7-17.6c0.6-1.7,1.3-3.5,2-5.2
		c2-4.6,3.4-9.4,4-14.4c0.9-7.6,3.3-15,7-21.7c2.2-4,4.3-8.1,6.4-12.2c6.1-12.1,15.1-21.6,26-29.4c4.8-3.4,9.6-6.7,14.5-10
		c9.4-6.3,19.3-11.6,30.1-14.9c4.7-1.4,9.3-2.9,14-4.1c2.5-0.6,5-1,7.6-1c6.4-0.1,12.7,0.5,19,1.6c6,1,11.9,2.2,17.9,2.9
		c5.4,0.7,10.8,1.9,16,3.7c3.7,1.2,7.5,2.3,11.2,3.5c1.4,0.5,2.8,1,4.1,1.6c3.6,1.5,6.9,3.8,9.5,6.8c1.9,2.1,3.7,4.3,5.6,6.5
		c1.8,2.2,3.8,4.2,6.1,5.9c2.5,1.9,4.8,4.1,6.7,6.5c3.9,4.6,8.1,9.1,12.5,13.2c2.2,2.2,4.4,4.4,6.5,6.8c6.8,7.6,11.4,16.8,13.3,26.8
		c1.2,6,2.3,12.1,3.5,18.1c0.7,3.4,1.6,6.9,2.6,10.2c2.4,8,2.1,16.5-0.8,24.2c-0.5,1.5-1.1,2.9-1.7,4.4c-1.9,4.6-3.3,9.4-4.2,14.3
		c-1.1,6.6-2.7,13-4.7,19.4c-0.9,2.8-2,5.5-3.1,8.2c-1.4,3.5-3.4,6.6-5.8,9.5c-2,2.4-3.9,4.9-5.4,7.7c-1,1.6-2,3.2-3,4.7
		c-1.8,2.8-4.5,5-7.6,6.3c-1.4,0.6-2.9,1.3-4.3,1.8c-3.5,1.4-6.7,3.3-9.6,5.7c-1.2,1-2.5,2-3.7,2.9c-4.2,3.4-8.9,6.1-14,7.9
		c-2.4,0.8-4.8,1.8-7.2,2.7c-3.9,1.4-7.5,3.4-10.9,5.7c-1.5,1.1-3,2.2-4.6,3.1c-3.5,2.2-7.5,3.5-11.6,3.8L1233.6,558.1z M1211,316.6
		c-5.9,0.2-11.8,1.1-17.6,2.6c-9,2.4-17.6,6-25.7,10.6c-4.5,2.5-9.1,5-13.5,7.7c-4.2,2.5-8.2,5.3-12.3,7.9c-0.6,0.4-1.3,0.9-1.9,1.4
		c-5.4,4.3-9.9,9.6-13.3,15.5c-4.5,7.8-8.9,15.7-13.4,23.5c-3.2,5.5-5.2,11.7-5.7,18c-0.5,6-1.8,11.8-4,17.4
		c-0.6,1.4-1.1,2.7-1.5,4.1c-0.8,2.6-1.7,5.2-2.3,7.9c-1.1,4.1-0.9,8.4,0.4,12.5c0.9,2.7,1.4,5.5,1.4,8.4c0.3,4.3,1.3,8.5,3,12.5
		c1.1,2.7,2.2,5.4,3.3,8.2c1.2,2.7,1.9,5.6,2.2,8.5c0.1,1.9,0.7,3.7,1.8,5.2c1,1.6,2.1,3.1,3.3,4.5c3.9,4.6,7.5,9.6,10.7,14.8
		c2.3,3.8,4.9,7.3,7.8,10.6c4.5,5,8.8,10,12.8,15.3c1,1.2,2,2.4,3.1,3.6c0.9,1,2,1.9,3,2.8c1.8,1.6,4.1,2.4,6.5,2.3
		c3.4,0,6.8,0.7,9.9,2.2c2.5,1.1,5,2.2,7.5,3.4c3.3,1.7,7.1,2.5,10.8,2.2c1.8-0.1,3.5-0.2,5.3-0.3c2.1-0.1,4.1-0.3,6.2-0.4
		c4.1,0.1,8.2,0.4,12.3,1.1c5.4,0.7,10.9,1.4,16.3,2c4.8,0.6,9.6,0.9,14.4,0.9c4.6,0,9.1-1.4,13-4c0.7-0.5,1.5-1,2.2-1.5
		c3-2.1,6.2-3.8,9.5-5.2c1.6-0.7,3.2-1.4,4.9-2c7.3-2.8,14.3-6.5,20.6-11.2c3.9-3,8.1-5.5,12.6-7.4c0.6-0.3,1.2-0.6,1.8-1
		c2-1,3.7-2.6,4.9-4.5c0.8-1.3,1.6-2.7,2.3-4.1c1.5-3.1,3.4-5.9,5.8-8.5c3.3-3.7,5.8-8,7.2-12.6c2.6-7.3,4.5-14.8,5.9-22.4
		c0.9-6.1,2.6-12.1,5.2-17.7c0.8-1.6,1.3-3.3,1.9-4.9c1.3-3.4,1.9-7,1.8-10.6c-0.1-4.2-0.8-8.4-2.2-12.4c-1.6-5.2-2.5-10.7-2.7-16.2
		c-0.1-2.1-0.4-4.1-0.9-6.1c-1.8-7.3-4.6-14.4-8.5-20.9c-3.1-5.5-7.1-10.4-11.8-14.5c-2.5-2.1-4.8-4.3-7.2-6.5
		c-4-3.9-7.9-7.9-11.8-11.9c-3.2-3.2-6.3-6.4-9.5-9.6c-4.9-4.9-10.8-8.5-17.3-10.7c-6.1-2-12.4-3.6-18.8-4.7
		c-6.9-1.3-13.8-2.6-20.8-3.9C1223.6,317.2,1217.3,316.6,1211,316.6z"/>
	<path class="st2" d="M1224.3,535.7c-4.4-0.3-9.3-0.5-14.2-1.1c-3.7-0.4-7.3-1.2-11-1.8c-4.3-0.7-8.7-1.5-13-2.2
		c-4.6-0.6-9.1-1.6-13.4-2.9c-5-1.6-9.5-4.3-13.3-7.8c-1.1-1.1-2.3-2.2-3.3-3.3c-4.5-4.9-9.3-9.5-14.4-13.8c-2.1-1.8-4-3.7-5.9-5.7
		c-3.3-3.3-5.8-7.2-7.3-11.6c-1.5-4.4-2.8-8.8-4.1-13.1c-0.7-2.1-1.2-4.3-1.9-6.5c-0.9-3-2.2-5.9-3.9-8.5c-2.1-3.1-3.1-6.8-3-10.5
		c0-7.2,0.6-14.3,1.9-21.3c0.5-2.5,1.3-4.9,2.4-7.2c2.1-4.3,3.3-9.1,3.4-13.9c0.1-3.4,1.1-6.8,2.9-9.7c5-8,10-16.1,15.7-23.8
		c2.4-3.1,5.2-5.9,8.3-8.2c1.7-1.3,3.4-2.6,5.2-3.8c5.8-3.9,11.6-7.7,17.4-11.5c7.1-4.4,14.5-8.1,22.2-11.3
		c3.7-1.7,7.7-2.4,11.7-2.2c1.3,0.1,2.6,0,3.8,0.1c2.4,0.1,4.7-0.5,6.8-1.6c1.6-0.8,3.2-1.5,4.8-2.2c4-1.8,8.6-1.6,12.4,0.5
		c0.8,0.4,1.6,0.8,2.3,1.2c4.8,2.7,10,4.5,15.4,5.4c1.6,0.3,3.2,0.7,4.9,1.1c4,0.9,7.8,2.7,11,5.4c2.1,1.7,4.2,3.5,6.3,5.2
		c2.1,1.9,4.6,3.3,7.3,4.2c1,0.4,1.9,1,2.6,1.8c6.8,6,12.8,12.7,18.1,20c4.7,6.7,9.2,13.6,13.7,20.5c2.6,4.2,4.8,8.5,6.6,13.1
		c2,5,2.6,10.5,1.7,15.9c-0.7,4.6-1.6,9.3-2.3,13.9c-0.8,4.2-0.7,8.4,0.3,12.5c1.1,4.3,0.7,8.9-0.9,13c-0.9,2.3-1.9,4.5-3,6.7
		c-3.2,6.2-6.4,12.3-9.7,18.5c-1.6,2.9-3.2,5.8-5,8.6c-2.7,4.2-6.4,7.7-10.7,10.3c-4.7,2.8-9.3,5.9-14,8.7c-4,2.4-8.1,4.8-12.2,7
		c-4,2.1-8.2,3.6-12.6,4.6c-3.7,0.9-7.3,2.2-10.7,4c-5.3,2.9-11,3.8-17,3.7L1224.3,535.7z M1228.8,530.2c2.3,0,3.8,0,5.4,0
		c2.7,0,5.5-0.5,8-1.6c1.9-0.8,3.8-1.6,5.7-2.4c2.9-1.4,6-2.4,9.2-3c3.3-0.6,6.4-1.8,9.2-3.7c1.7-1.1,3.6-1.9,5.6-2.5
		c3.2-0.8,6.2-2.5,8.6-4.8c2.6-2.4,5.5-4.4,8.6-6.1c1-0.5,1.9-1,2.8-1.6c2.5-1.5,4.8-3.4,6.7-5.7c2.2-2.6,4-5.5,5.5-8.6
		c1.6-3.3,3.1-6.6,4.5-9.9c2-4.6,4.3-9,7-13.2c1.2-1.9,1.9-4.1,2.1-6.4c0.3-3.2,0.2-6.5-0.3-9.7c-0.7-5.2-0.5-10.4,0.6-15.5
		c0.8-3.7,1.6-7.5,2.2-11.2c0.8-4.1,0.4-8.3-1.2-12.1c-4.2-10.2-9.5-20-15.7-29.2c-5.5-8-12-15.2-18.4-22.5c-0.4-0.5-1-1-1.4-1.5
		c-1.7-1.8-3.9-3-6.3-3.6c-2.6-0.6-5-1.8-7-3.5c-1.8-1.4-3.5-2.8-5.2-4.2c-2.6-2.2-5.7-3.8-9.1-4.6c-1.3-0.3-2.7-0.6-4-0.8
		c-5.6-0.7-10.9-2.5-15.8-5.2c-1.5-0.8-3-1.5-4.5-2.1c-3.3-1.3-7-1.2-10.3,0.3c-1.6,0.7-3.3,1.3-4.9,1.9c-2.1,0.8-4.4,1.1-6.6,1
		c-1.8,0-3.5-0.1-5.3-0.3c-2.9-0.5-5.9-0.2-8.7,0.9c-8.5,2.9-16.7,6.8-24.3,11.7c-5.4,3.6-10.7,7.2-16.1,10.9
		c-4.1,2.7-7.7,6.1-10.6,10.1c-5.9,8.2-11.3,16.7-16.2,25.5c-1.7,2.8-2.5,6-2.3,9.3c0.1,2.4-0.2,4.7-0.9,7c-0.9,3.1-1.8,6.2-2.9,9.2
		c-2.4,7-3.5,14.3-3,21.7c0.2,3.7,0.6,7.4,2.5,10.8c2.4,4.5,4.3,9.2,5.7,14.1c1.6,5.4,3.5,10.8,5.8,16c2.4,5.4,5.9,10.2,10.3,14.1
		c1,0.9,2.1,1.8,3.1,2.7c4.4,3.8,8.8,7.6,13.1,11.3c3,2.7,6.2,5.2,9.5,7.4c3.3,2.2,7.2,3.7,11.2,4.2c3.4,0.3,6.8,0.9,10.2,0.9
		c5.8,0.2,11.5,0.9,17.2,2.1C1215,529.3,1221.9,530,1228.8,530.2z"/>
	<path class="st2" d="M1137.5,439.3c0.2-4.2,0.4-8.4,0.7-12.6c0.8-8.2,3-16.2,6.7-23.6c1.3-2.7,2.8-5.4,4.3-8
		c1.3-2.3,2.9-4.4,4.8-6.3c2-2.1,3.8-4.5,5.2-7.1c1.1-2,2.4-4,3.7-6c2.3-3.6,5.7-6.3,9.7-7.8c1.1-0.4,2.2-0.9,3.3-1.2
		c4.3-1.4,8.4-3.3,12.2-5.7c2.4-1.5,4.9-2.9,7.4-4.2c5.3-2.9,11.2-4.3,17.2-4.1c4,0.2,8,0.1,12,0.4c2.3,0.2,4.6,0.7,6.9,1.4
		c3.6,1.2,7.1,2.7,10.7,4.1c3.9,1.5,7.8,3.2,11.7,4.6c11.9,4.1,22.5,11.4,30.6,21c2.4,2.9,4.7,6,7.2,8.9c3.8,4.8,6.3,10.5,7.1,16.5
		c0.8,4.6,1.4,9.3,2.3,13.9c0.8,3.4,1.1,6.9,0.8,10.5c-0.1,2.5-0.1,5.1,0,7.6c0,2,0,3.9-0.1,5.9c-0.1,3.8-1.1,7.6-2.8,11
		c-1.3,2.5-2.6,5-4,7.5c-1.8,3.1-3,6.6-3.5,10.2c-0.7,5.2-3.4,9.5-6.9,13.4c-2.3,2.5-5,4.7-7.9,6.6c-4.8,3.2-9.7,6.3-14.5,9.4
		c-3,1.9-6.3,2.6-9.7,3.1c-2.9,0.4-5.8,0.8-8.7,1.2c-3,0.5-5.9,1.4-8.7,2.6c-1.8,0.8-3.6,1.4-5.4,2.2c-3.9,1.5-8.2,2.1-12.4,1.6
		c-1.3-0.2-2.5-0.5-3.7-1c-3.2-1.3-6.6-1.9-10-2c-4,0-8-1.1-11.4-3.1c-2.7-1.7-5.6-2.8-8.8-3.3c-4.5-0.7-8.6-2.9-11.7-6.2
		c-3.9-4.3-8.9-7.4-14.5-9.2c-1-0.4-2-0.8-2.9-1.3c-1.7-0.8-3.1-2.1-4-3.8c-3.9-7.4-7.8-14.7-10-22.8c-1.5-5.3-2.3-10.7-2.5-16.2
		c-0.1-2.7,0-5.5,0-8.2L1137.5,439.3z M1155,484.8c0.7,0.2,1.7,0.5,2.7,0.9c3.2,1.2,6.2,3,8.8,5.3c2.4,2,4.8,4,7.2,6
		c3.1,2.6,6.7,4.4,10.6,5.4c3.2,0.7,6.2,1.9,9,3.5c0.8,0.5,1.8,0.9,2.6,1.3c2.1,1,4.4,1.7,6.8,1.8c4.9,0.3,9.8,0.8,14.4,2.6
		c0.5,0.2,1.2,0.2,1.7,0.4c2.1,0.5,4.3,0.6,6.4,0.1c3-0.6,5.8-1.6,8.6-2.9c3.3-1.5,6.8-2.5,10.4-3.1c3.4-0.5,6.8-0.9,10.2-1.2
		c3.1-0.2,6.1-1.3,8.7-3.1c2-1.5,4.2-2.5,6.2-3.9c2.3-1.5,4.6-3,6.8-4.6c6.9-5.1,11.5-12.9,12.7-21.4c0.2-1.2,0.6-2.3,1.2-3.3
		c2.7-4.7,4.7-9.7,6.1-14.9c1.6-6.2,2.4-12.5,2.4-18.9c0.1-8-0.9-16.1-3.2-23.8c-1.1-3.9-2.3-7.7-4.6-11.1
		c-3.3-5.1-7.1-9.9-11.3-14.3c-1.7-1.7-3.6-3.4-5.5-4.9c-5.3-4.1-11.1-7.4-17.3-9.9c-9.1-3.8-18.4-7.2-27.6-10.9
		c-2.5-1-5.1-1.5-7.7-1.5c-3.5-0.1-7.1-0.1-10.6,0c-2.8,0-5.7,0.6-8.3,1.6c-3.3,1.3-6.6,2.4-9.9,3.6c-7,2.4-13.9,5.2-20.7,8.3
		c-2.9,1.3-5.2,3.6-6.6,6.4c-0.9,1.7-1.7,3.5-2.6,5.3c-1.1,2.3-2.6,4.4-4.6,6c-1.9,1.7-3.6,3.7-4.8,5.9c-1.2,2-2.4,4-3.6,6.1
		c-1.7,3-3,6.2-3.8,9.5c-4.2,15.2-5.1,31-2.8,46.6c0.9,5.9,2.5,11.6,5.8,16.8C1150.9,477.8,1152.8,481.2,1155,484.8L1155,484.8z"/>
	<path class="st2" d="M1280.9,434.8c0.4,4,0.3,8-0.1,12c-0.8,6.2-3.3,12.1-7.3,17c-3.7,4.7-7.6,9.2-11.5,13.8
		c-1.4,1.7-3,3.3-4.7,4.9c-2,1.8-4.2,3.6-6.4,5.2c-3.7,2.6-8.1,4-12.7,4.1c-5.6,0.2-11.2,0.1-16.7-0.4c-7.3-0.6-14.7-0.9-22-1.3
		c-3.4-0.2-6.8-0.6-10.2-1.3c-3.5-0.8-6.7-2.5-9.2-4.9c-4.8-4.3-8.9-9.4-12-15.1c-3.9-7.3-6.5-15.2-7.6-23.3
		c-0.9-5.9-1-11.9-0.4-17.9c0.5-5.4,1.7-10.6,3.6-15.7c1-2.7,2.5-5.1,4.4-7.2c1.5-1.7,3-3.3,4.6-4.9c2.5-2.6,4.9-5.3,7.2-8.2
		c6-7.6,13.6-12.5,23.4-13.8c2.4-0.3,4.8-0.8,7.2-1.2c1.8-0.3,3.6-1,5.1-2.1c3.1-2.3,6.5-2.5,10-1.4c1.5,0.5,2.9,1,4.4,1.7
		c3.5,1.5,7.3,2.4,11.1,2.5c2.3,0.1,4.5,0.7,6.5,1.7c1.4,0.7,2.8,1.5,4.1,2.3c11,7.1,19.7,17.3,25.1,29.3c2.2,5,3.5,10.4,3.7,15.9
		C1280.6,429.1,1280.8,432,1280.9,434.8z M1276.9,434.7c-0.1-2.7-0.2-5.5-0.4-8.2c-0.1-2.4-0.5-4.9-1-7.2
		c-3.1-11.5-9.5-20.9-18.5-28.6c-4.7-4-10.2-6.4-16.1-8.1c-5-1.4-10-2.8-14.9-4.3c-2.6-0.8-5.4-1.1-8.1-0.9
		c-4.8,0.4-9.5,1.1-14.2,2.1c-6.9,1.5-13.3,5.1-18.1,10.2c-0.6,0.6-1.2,1.3-1.8,1.9c-4.2,4.8-8.5,9.6-12.7,14.4
		c-2.2,2.4-3.8,5.3-4.6,8.4c-1.4,5.2-2.4,10.5-3,15.9c-1.2,10.6,0.6,21.3,5.4,30.8c2.6,5.6,6,10.8,10,15.5c2.6,3,5.5,5.6,9.5,6.6
		c0.5,0.1,0.9,0.3,1.3,0.5c1.8,1.3,3.8,1.3,5.9,1.2s4.3,0,6.5-0.1c3.2-0.1,6.5,0.2,9.6,0.8c6.4,1.1,12.8,2,19.2,2.6
		c3.8,0.4,7.7,0.2,11.4-0.5c4.4-1.1,8.4-3.3,11.6-6.5c6.6-6.2,12.6-13.2,17.7-20.7c2.7-4,4.4-8.6,5.1-13.3
		C1277.1,442.9,1277.2,438.8,1276.9,434.7L1276.9,434.7z"/>
	<path class="st2" d="M1260,426.6c-0.5,3.7-0.9,7.3-1.4,10.9c-0.7,4.6-1.4,9.3-2,13.9c-0.2,1.1-0.6,2.1-1.2,3
		c-2.7,4.2-6.1,7.9-10.1,10.9c-6.6,5.1-14.4,8.5-22.6,10c-2.1,0.4-4.2,0.8-6.4,1c-4.9,0.5-9.8-0.5-14.1-3c-2.3-1.4-4.6-3-6.8-4.6
		c-3-2.2-5.8-4.6-8.8-6.9c-2.9-2.2-5.2-5.1-6.6-8.5c-1.4-3.2-2.3-6.7-2.7-10.2c-0.9-6.6-0.6-13.3,0.8-19.8c0.6-2.7,1.6-5.2,2.9-7.6
		c4.1-7.4,9.9-13.7,16.9-18.5c3.3-2.2,6.9-3.7,10.7-4.5c2.1-0.5,4.3-0.4,6.4,0.2c2.4,0.7,4.9,1.5,7.3,2.1c1.1,0.3,2.3,0.5,3.5,0.5
		c2.9,0.1,5.8,0.7,8.6,1.7c6.2,2.2,11.9,5.6,16.7,10.1c3.8,3.4,6.5,7.9,7.8,12.9C1259.5,422.2,1259.7,424.5,1260,426.6z
		 M1254.8,431.2c-0.2-2-0.3-4.4-0.6-6.7c-1.1-8.1-5.1-14.2-12.5-18c-3-1.5-6.1-2.6-9.3-3.5c-5.6-1.6-11.4-2.7-16.9-4.7
		c-1.6-0.6-3.2-0.8-4.9-0.6c-2,0.3-4,0.8-6,1.4c-2.2,0.6-4.2,1.6-6.5,1.5c-0.8,0-1.5,0.4-2,1.1c-2.1,2.2-4.3,4.3-6.2,6.6
		c-1.6,1.9-3,3.8-4.3,5.9c-2,3-3.1,6.4-3.2,9.9c-0.2,5.6-0.3,11.1-0.4,16.7c-0.1,5.1,1.7,10,5,13.8c3.3,4,7,7.6,11.1,10.8
		c5,4,11.4,6,17.8,5.5c9.6-0.4,19-3,27.4-7.6c4.6-2.5,7.3-6.4,9.5-10.8c0.2-0.6,0.4-1.3,0.4-2c0.3-2.9,0.7-5.8,1-8.8
		C1254.2,438.4,1254.5,435,1254.8,431.2L1254.8,431.2z"/>
	<path class="st2" d="M1240.1,433.2c0.1,3.2-0.3,6.3-1.2,9.4c-0.6,2.1-1.6,4-3,5.7c-3.4,4.1-7.4,7.5-12,10.2
		c-2.8,1.6-6.2,2.1-9.3,1.3c-1.2-0.2-2.3-0.6-3.4-1c-3.7-1.6-7.3-3.2-11-4.9c-2-0.9-3.7-2.2-5.2-3.8c-1.4-1.4-2.3-3.2-2.7-5.1
		c-0.8-3.6-0.2-7.2,0.3-10.8c0.3-1.6,0.7-3.3,1.2-4.9c1.2-4.4,4.1-8.1,8-10.5c1.5-0.9,3-1.7,4.7-2.5c1.4-0.6,2.8-1.4,3.9-2.5
		c1.2-1.3,2.8-2.2,4.5-2.7c1.2-0.4,2.5-0.4,3.8-0.2c1,0.3,2.1,0.5,3.1,0.8c3,1,5.9,2,8.9,3c3.5,1.1,6.3,3.8,7.5,7.3
		C1239.5,425.6,1240.2,429.4,1240.1,433.2z M1216.8,416.2c-2,0.6-4.6,1.4-7.1,2.2c-1.6,0.5-3.1,1.1-4.7,1.7
		c-0.9,0.3-1.8,0.9-2.4,1.6c-2.9,3.2-5,7.1-6,11.3c-1.5,7.3,0.6,10.3,5.3,13.3l0.2,0.1c3.2,1.9,6.3,3.9,9.5,5.8
		c0.8,0.5,1.7,0.9,2.6,1.4c3.1,1.7,6.8,1.6,9.8-0.2c1-0.6,2-1.2,2.9-2c5.8-4.9,9.1-12.1,9.1-19.6c0.1-3-0.7-5.9-2.2-8.4
		c-0.6-1-1.5-1.9-2.6-2.2l-4.7-1.6L1216.8,416.2z"/>
</g>
</svg>
